<svg width="96" height="16" viewBox="0 0 96 16" fill="none" xmlns="http://www.w3.org/2000/svg">
<path d="M4 8C6.20914 8 8 6.20914 8 4C8 1.79086 6.20914 0 4 0C1.79086 0 0 1.79086 0 4C0 6.20914 1.79086 8 4 8Z" fill="white"/>
<path d="M24 8C26.2091 8 28 6.20914 28 4C28 1.79086 26.2091 0 24 0C21.7909 0 20 1.79086 20 4C20 6.20914 21.7909 8 24 8Z" fill="white"/>
<path d="M44 8C46.2091 8 48 6.20914 48 4C48 1.79086 46.2091 0 44 0C41.7909 0 40 1.79086 40 4C40 6.20914 41.7909 8 44 8Z" fill="white"/>
<path d="M64 8C66.2091 8 68 6.20914 68 4C68 1.79086 66.2091 0 64 0C61.7909 0 60 1.79086 60 4C60 6.20914 61.7909 8 64 8Z" fill="white"/>
<path d="M84 8C86.2091 8 88 6.20914 88 4C88 1.79086 86.2091 0 84 0C81.7909 0 80 1.79086 80 4C80 6.20914 81.7909 8 84 8Z" fill="white"/>
</svg>
