<svg width="56" height="53" viewBox="0 0 56 53" fill="none" xmlns="http://www.w3.org/2000/svg">
<g clip-path="url(#clip0_1598_3595)">
<path d="M24.15 7.35C24.15 7.85 24.0833 8.33333 23.95 8.8C23.8167 9.26666 23.5833 9.68333 23.25 10.05C23.1167 10.25 22.8833 10.5167 22.55 10.85C22.2167 11.15 21.7667 11.5833 21.2 12.15C19.8 13.3167 18.4667 14.55 17.2 15.85C15.9667 17.15 14.7667 18.5167 13.6 19.95C13.2 20.4167 12.8 20.9 12.4 21.4C12 21.9 11.6833 22.4167 11.45 22.95C11.2167 23.4833 11.1 24.05 11.1 24.65C11.1333 25.25 11.3833 25.8667 11.85 26.5C12.6833 27.6667 13.5667 28.7833 14.5 29.85C15.4333 30.9167 16.4333 31.9667 17.5 33C18.1333 33.6667 18.7667 34.3167 19.4 34.95C20.0667 35.5833 20.7 36.2167 21.3 36.85C22.1 37.65 22.5833 38.5 22.75 39.4C22.9167 40.2667 22.8333 41.0333 22.5 41.7C22.1667 42.3667 21.6167 42.85 20.85 43.15C20.1167 43.45 19.2333 43.4 18.2 43C17.6667 42.7667 17.15 42.45 16.65 42.05C16.15 41.6833 15.6667 41.2667 15.2 40.8C14.7333 40.3 14.2833 39.8 13.85 39.3C13.4167 38.8 13.0167 38.3333 12.65 37.9C6.38333 31 3.25 26.4333 3.25 24.2C3.25 22.5 4.46667 20.0333 6.9 16.8C7.83333 15.6333 8.86667 14.4167 10 13.15C11.1333 11.85 12.4 10.5667 13.8 9.3C14.6667 8.43333 15.55 7.58333 16.45 6.75C17.3833 5.88333 18.4 5.15 19.5 4.55C19.9667 4.31667 20.4667 4.21666 21 4.25C21.5667 4.25 22.0833 4.38333 22.55 4.65C23.0167 4.88333 23.4 5.23333 23.7 5.7C24 6.16667 24.15 6.71667 24.15 7.35Z" fill="#4857EC"/>
<path d="M31.85 40.65C31.85 40.15 31.9167 39.6667 32.05 39.2C32.1833 38.7333 32.4167 38.3167 32.75 37.95C32.8833 37.75 33.1167 37.4833 33.45 37.15C33.7833 36.85 34.2333 36.4167 34.8 35.85C36.2 34.6833 37.5333 33.45 38.8 32.15C40.0333 30.85 41.2333 29.4833 42.4 28.05C42.8 27.5833 43.2 27.1 43.6 26.6C44 26.1 44.3167 25.5833 44.55 25.05C44.7833 24.5167 44.9 23.95 44.9 23.35C44.8667 22.75 44.6167 22.1333 44.15 21.5C43.3167 20.3333 42.4333 19.2167 41.5 18.15C40.5667 17.0833 39.5667 16.0333 38.5 15C37.8667 14.3333 37.2333 13.6833 36.6 13.05C35.9333 12.4167 35.3 11.7833 34.7 11.15C33.9 10.35 33.4167 9.5 33.25 8.6C33.0833 7.73333 33.1667 6.96666 33.5 6.3C33.8333 5.63333 34.3833 5.15 35.15 4.85C35.8833 4.55 36.7667 4.6 37.8 5C38.3333 5.23333 38.85 5.55 39.35 5.95C39.85 6.31667 40.3333 6.73333 40.8 7.2C41.2667 7.7 41.7167 8.2 42.15 8.7C42.5833 9.2 42.9833 9.66667 43.35 10.1C49.6167 17 52.75 21.5667 52.75 23.8C52.75 25.5 51.5333 27.9667 49.1 31.2C48.1667 32.3667 47.1333 33.5833 46 34.85C44.8667 36.15 43.6 37.4333 42.2 38.7C41.3333 39.5667 40.45 40.4167 39.55 41.25C38.6167 42.1167 37.6 42.85 36.5 43.45C36.0333 43.6833 35.5333 43.7833 35 43.75C34.4333 43.75 33.9167 43.6167 33.45 43.35C32.9833 43.1167 32.6 42.7667 32.3 42.3C32 41.8333 31.85 41.2833 31.85 40.65Z" fill="#4857EC"/>
</g>
<defs>
<clipPath id="clip0_1598_3595">
<rect width="56" height="53" fill="white"/>
</clipPath>
</defs>
</svg>
