<svg width="180" height="60" viewBox="0 0 180 60" fill="none" xmlns="http://www.w3.org/2000/svg">
<g clip-path="url(#clip0_872_19548)">
<circle cx="30" cy="30" r="30" fill="#EFB6A9"/>
<g clip-path="url(#clip1_872_19548)">
<path d="M30 45C38.2838 45 45 38.2838 45 30C45 21.7162 38.2838 15 30 15C21.7162 15 15 21.7162 15 30C15 38.2838 21.7162 45 30 45ZM30 17.8125C36.7312 17.8125 42.1875 23.2688 42.1875 30C42.1875 36.7312 36.7312 42.1875 30 42.1875C23.2688 42.1875 17.8125 36.7312 17.8125 30C17.8125 23.2688 23.2688 17.8125 30 17.8125ZM30 32.5425C33.3975 32.5425 36.6281 31.6406 39.375 30.0544C38.9475 35.2819 34.8881 39.375 30 39.375C25.1119 39.375 21.0525 35.2763 20.625 30.0506C23.3719 31.635 26.6025 32.5425 30 32.5425V32.5425ZM22.5 25.3125C22.5 23.76 23.34 22.5 24.375 22.5C25.41 22.5 26.25 23.76 26.25 25.3125C26.25 26.865 25.41 28.125 24.375 28.125C23.34 28.125 22.5 26.865 22.5 25.3125ZM33.75 25.3125C33.75 23.76 34.59 22.5 35.625 22.5C36.66 22.5 37.5 23.76 37.5 25.3125C37.5 26.865 36.66 28.125 35.625 28.125C34.59 28.125 33.75 26.865 33.75 25.3125Z" fill="white"/>
</g>
<circle cx="90" cy="30" r="30" fill="#A9C1EF"/>
<g clip-path="url(#clip2_872_19548)">
<path d="M90 45C98.2838 45 105 38.2838 105 30C105 21.7162 98.2838 15 90 15C81.7162 15 75 21.7162 75 30C75 38.2838 81.7162 45 90 45ZM90 17.8125C96.7312 17.8125 102.188 23.2688 102.188 30C102.188 36.7312 96.7312 42.1875 90 42.1875C83.2688 42.1875 77.8125 36.7312 77.8125 30C77.8125 23.2688 83.2688 17.8125 90 17.8125ZM90 32.5425C93.3975 32.5425 96.6281 31.6406 99.375 30.0544C98.9475 35.2819 94.8881 39.375 90 39.375C85.1119 39.375 81.0525 35.2763 80.625 30.0506C83.3719 31.635 86.6025 32.5425 90 32.5425V32.5425ZM82.5 25.3125C82.5 23.76 83.34 22.5 84.375 22.5C85.41 22.5 86.25 23.76 86.25 25.3125C86.25 26.865 85.41 28.125 84.375 28.125C83.34 28.125 82.5 26.865 82.5 25.3125ZM93.75 25.3125C93.75 23.76 94.59 22.5 95.625 22.5C96.66 22.5 97.5 23.76 97.5 25.3125C97.5 26.865 96.66 28.125 95.625 28.125C94.59 28.125 93.75 26.865 93.75 25.3125Z" fill="white"/>
</g>
<circle cx="150" cy="30" r="30" fill="#E5EFA9"/>
<g clip-path="url(#clip3_872_19548)">
<path d="M150 45C158.284 45 165 38.2838 165 30C165 21.7162 158.284 15 150 15C141.716 15 135 21.7162 135 30C135 38.2838 141.716 45 150 45ZM150 17.8125C156.731 17.8125 162.188 23.2688 162.188 30C162.188 36.7312 156.731 42.1875 150 42.1875C143.269 42.1875 137.812 36.7312 137.812 30C137.812 23.2688 143.269 17.8125 150 17.8125ZM150 32.5425C153.398 32.5425 156.628 31.6406 159.375 30.0544C158.947 35.2819 154.888 39.375 150 39.375C145.112 39.375 141.053 35.2763 140.625 30.0506C143.372 31.635 146.602 32.5425 150 32.5425V32.5425ZM142.5 25.3125C142.5 23.76 143.34 22.5 144.375 22.5C145.41 22.5 146.25 23.76 146.25 25.3125C146.25 26.865 145.41 28.125 144.375 28.125C143.34 28.125 142.5 26.865 142.5 25.3125ZM153.75 25.3125C153.75 23.76 154.59 22.5 155.625 22.5C156.66 22.5 157.5 23.76 157.5 25.3125C157.5 26.865 156.66 28.125 155.625 28.125C154.59 28.125 153.75 26.865 153.75 25.3125Z" fill="white"/>
</g>
</g>
<defs>
<clipPath id="clip0_872_19548">
<rect width="180" height="60" fill="white"/>
</clipPath>
<clipPath id="clip1_872_19548">
<rect width="30" height="30" fill="white" transform="translate(15 15)"/>
</clipPath>
<clipPath id="clip2_872_19548">
<rect width="30" height="30" fill="white" transform="translate(75 15)"/>
</clipPath>
<clipPath id="clip3_872_19548">
<rect width="30" height="30" fill="white" transform="translate(135 15)"/>
</clipPath>
</defs>
</svg>
