<svg width="240" height="60" viewBox="0 0 240 60" fill="none" xmlns="http://www.w3.org/2000/svg">
<g clip-path="url(#clip0_866_12570)">
<circle cx="30" cy="30" r="30" fill="#899FC9"/>
<path d="M18 27.7578C18 26.5616 18.5354 25.4281 19.4593 24.6683L27.4593 18.0894C28.9356 16.8754 31.0644 16.8754 32.5407 18.0894L40.5407 24.6683C41.4646 25.4281 42 26.5616 42 27.7578V38.3158C42 40.5249 40.2091 42.3158 38 42.3158H34.7895C34.2372 42.3158 33.7895 41.8681 33.7895 41.3158V36.4211C33.7895 35.3165 32.894 34.4211 31.7895 34.4211H28.2105C27.106 34.4211 26.2105 35.3165 26.2105 36.4211V41.3158C26.2105 41.8681 25.7628 42.3158 25.2105 42.3158H22C19.7909 42.3158 18 40.5249 18 38.3158L18 27.7578Z" fill="white" stroke="white" stroke-width="1.5"/>
<circle cx="90" cy="30" r="30" fill="#F4D08B"/>
<path d="M88.9948 18.5419C89.4682 17.8157 90.5318 17.8157 91.0052 18.5419L94.6671 24.1585C94.8402 24.4241 95.1114 24.6104 95.4214 24.6766L102.184 26.1225C103.098 26.3179 103.448 27.4371 102.808 28.118L98.3602 32.8474C98.1241 33.0984 98.0074 33.4388 98.0396 33.7818L98.6344 40.1086C98.7181 40.9982 97.8349 41.6639 97.0027 41.3385L90.437 38.7709C90.156 38.661 89.844 38.661 89.563 38.7709L82.9973 41.3385C82.1651 41.6639 81.2819 40.9982 81.3656 40.1086L81.9604 33.7818C81.9926 33.4388 81.8759 33.0984 81.6398 32.8474L77.1923 28.118C76.552 27.4371 76.9016 26.3179 77.8156 26.1225L84.5786 24.6766C84.8886 24.6104 85.1598 24.4241 85.3329 24.1585L88.9948 18.5419Z" fill="white" stroke="white" stroke-width="1.5"/>
<circle cx="150" cy="30" r="30" fill="#F2C7C4"/>
<path d="M140.078 33.7668L148.324 42.4565C149.507 43.7032 151.493 43.7032 152.676 42.4565L160.922 33.7668C163.693 30.8462 163.693 26.111 160.922 23.1904C158.15 20.2699 153.657 20.2699 150.886 23.1904V23.1904C150.676 23.4116 150.324 23.4116 150.114 23.1904V23.1904C147.343 20.2699 142.85 20.2699 140.078 23.1904C137.307 26.111 137.307 30.8462 140.078 33.7668Z" fill="white" stroke="white" stroke-width="1.5"/>
<circle cx="210" cy="30" r="30" fill="#A2EDF2"/>
<path d="M213.585 27.0377C213.474 27.0377 213.385 26.9482 213.385 26.8377V12.6038C213.385 12.4112 213.139 12.3299 213.024 12.4844L198.594 31.8781C198.349 32.208 198.584 32.6766 198.995 32.6766H207.415C207.526 32.6766 207.615 32.7661 207.615 32.8766V47.1105C207.615 47.303 207.861 47.3844 207.976 47.2298L222.406 27.8362C222.651 27.5063 222.416 27.0377 222.005 27.0377H213.585Z" fill="white" stroke="white" stroke-width="1.5"/>
</g>
<defs>
<clipPath id="clip0_866_12570">
<rect width="240" height="60" fill="white"/>
</clipPath>
</defs>
</svg>
