<svg width="250" height="36" viewBox="0 0 250 36" fill="none" xmlns="http://www.w3.org/2000/svg">
<circle cx="68" cy="18" r="18" fill="white"/>
<path d="M61 22.7435C62.5673 22.8317 63.9378 22.4654 65.2743 21.4951C63.9242 21.2645 62.9879 20.6471 62.4791 19.3715C62.8726 19.3173 63.2186 19.419 63.6257 19.2562C62.2959 18.6727 61.4342 17.7975 61.4003 16.2845C61.8209 16.3185 62.1398 16.5966 62.6419 16.5559C61.4207 15.3618 61.0475 14.0592 61.8142 12.4783C63.0897 13.9438 64.5823 14.9412 66.4074 15.4093C66.5091 15.4364 66.6041 15.4636 66.7059 15.4839C67.174 15.5925 67.7304 15.8232 68.0153 15.7892C68.5038 15.7282 68.0153 15.1651 68.1375 14.4323C68.5242 12.1527 71.0345 11.1146 72.8935 12.4512C73.4363 12.8447 73.8637 12.8379 74.3997 12.6005C74.6779 12.4783 74.9628 12.3562 75.2953 12.2137C75.2207 12.8651 74.7186 13.2246 74.3183 13.7064C74.7729 13.8081 75.1392 13.6792 75.5599 13.5435C75.4174 14.0117 75.0646 14.2763 74.7457 14.5341C74.4133 14.7987 74.2844 15.0769 74.2708 15.5111C74.0673 22.0854 66.5973 27.1671 61.4885 23.1235C60.9932 22.73 61.4749 23.1235 61 22.7435Z" fill="#888888"/>
<circle cx="118" cy="18" r="18" fill="white"/>
<path d="M118 10.6207C120.405 10.6207 120.689 10.6312 121.635 10.6734C122.514 10.7121 122.989 10.8598 123.305 10.9828C123.723 11.1445 124.026 11.3414 124.339 11.6543C124.655 11.9707 124.848 12.2695 125.01 12.6879C125.133 13.0043 125.281 13.4824 125.32 14.3578C125.362 15.307 125.372 15.5918 125.372 17.993C125.372 20.3977 125.362 20.6824 125.32 21.6281C125.281 22.507 125.133 22.9816 125.01 23.298C124.848 23.7164 124.652 24.0187 124.339 24.3316C124.022 24.648 123.723 24.8414 123.305 25.0031C122.989 25.1262 122.511 25.2738 121.635 25.3125C120.686 25.3547 120.401 25.3652 118 25.3652C115.595 25.3652 115.311 25.3547 114.365 25.3125C113.486 25.2738 113.011 25.1262 112.695 25.0031C112.277 24.8414 111.974 24.6445 111.661 24.3316C111.345 24.0152 111.152 23.7164 110.99 23.298C110.867 22.9816 110.719 22.5035 110.68 21.6281C110.638 20.6789 110.628 20.3941 110.628 17.993C110.628 15.5883 110.638 15.3035 110.68 14.3578C110.719 13.4789 110.867 13.0043 110.99 12.6879C111.152 12.2695 111.348 11.9672 111.661 11.6543C111.978 11.3379 112.277 11.1445 112.695 10.9828C113.011 10.8598 113.489 10.7121 114.365 10.6734C115.311 10.6312 115.595 10.6207 118 10.6207ZM118 9C115.557 9 115.251 9.01055 114.291 9.05273C113.335 9.09492 112.677 9.24961 112.108 9.47109C111.514 9.70312 111.011 10.009 110.512 10.5117C110.009 11.0109 109.703 11.5137 109.471 12.1043C109.25 12.6773 109.095 13.3312 109.053 14.2875C109.011 15.2508 109 15.5566 109 18C109 20.4434 109.011 20.7492 109.053 21.709C109.095 22.6652 109.25 23.3227 109.471 23.8922C109.703 24.4863 110.009 24.9891 110.512 25.4883C111.011 25.9875 111.514 26.2969 112.104 26.5254C112.677 26.7469 113.331 26.9016 114.288 26.9437C115.247 26.9859 115.553 26.9965 117.996 26.9965C120.44 26.9965 120.746 26.9859 121.705 26.9437C122.662 26.9016 123.319 26.7469 123.889 26.5254C124.479 26.2969 124.982 25.9875 125.481 25.4883C125.98 24.9891 126.29 24.4863 126.518 23.8957C126.74 23.3227 126.895 22.6687 126.937 21.7125C126.979 20.7527 126.989 20.4469 126.989 18.0035C126.989 15.5602 126.979 15.2543 126.937 14.2945C126.895 13.3383 126.74 12.6809 126.518 12.1113C126.297 11.5137 125.991 11.0109 125.488 10.5117C124.989 10.0125 124.486 9.70312 123.896 9.47461C123.323 9.25312 122.669 9.09844 121.713 9.05625C120.749 9.01055 120.443 9 118 9Z" fill="#888888"/>
<path d="M118 13.377C115.448 13.377 113.377 15.4477 113.377 18C113.377 20.5523 115.448 22.623 118 22.623C120.552 22.623 122.623 20.5523 122.623 18C122.623 15.4477 120.552 13.377 118 13.377ZM118 20.9988C116.344 20.9988 115.001 19.6559 115.001 18C115.001 16.3441 116.344 15.0012 118 15.0012C119.656 15.0012 120.999 16.3441 120.999 18C120.999 19.6559 119.656 20.9988 118 20.9988Z" fill="#888888"/>
<path d="M123.885 13.1942C123.885 13.7918 123.4 14.2735 122.806 14.2735C122.208 14.2735 121.727 13.7883 121.727 13.1942C121.727 12.5965 122.212 12.1149 122.806 12.1149C123.4 12.1149 123.885 12.6 123.885 13.1942Z" fill="#888888"/>
<circle cx="168" cy="18" r="18" fill="white"/>
<path d="M173.94 24.7059H161.907C160.297 24.7059 159 23.2022 159 21.3527V15.3531C159 13.4961 160.304 12 161.907 12H173.94C175.55 12 176.847 13.5037 176.847 15.3531V21.3527C176.854 23.2097 175.55 24.7059 173.94 24.7059Z" fill="#888888"/>
<path d="M171.08 18.259L166.019 15.1765V21.3415L171.08 18.259Z" fill="white"/>
<circle cx="18" cy="18" r="18" fill="white"/>
<path d="M27 18C27 13.0294 22.9706 9 18 9C13.0294 9 9 13.0294 9 18C9 22.4921 12.2912 26.2155 16.5938 26.8907V20.6016H14.3086V18H16.5938V16.0172C16.5938 13.7616 17.9374 12.5156 19.9932 12.5156C20.9776 12.5156 22.0078 12.6914 22.0078 12.6914V14.9062H20.873C19.755 14.9062 19.4062 15.6001 19.4062 16.3125V18H21.9023L21.5033 20.6016H19.4062V26.8907C23.7088 26.2155 27 22.4921 27 18Z" fill="#888888"/>
<circle cx="218" cy="18" r="18" fill="white"/>
<g clip-path="url(#clip0_701_313)">
<path d="M217.5 10.5L214.7 13.3L216.1 14.7L218.9 11.9C220.055 10.745 221.945 10.745 223.1 11.9C224.255 13.055 224.255 14.945 223.1 16.1L220.3 18.9L221.7 20.3L224.5 17.5C226.432 15.568 226.432 12.432 224.5 10.5C222.568 8.56797 219.432 8.56797 217.5 10.5ZM218.9 20.3L216.1 23.1C214.945 24.255 213.055 24.255 211.9 23.1C210.745 21.945 210.745 20.055 211.9 18.9L214.7 16.1L213.3 14.7L210.5 17.5C208.568 19.432 208.568 22.568 210.5 24.5C212.432 26.432 215.568 26.432 217.5 24.5L220.3 21.7L218.9 20.3ZM214 19.6L219.6 14L221 15.4L215.4 21L214 19.6Z" fill="#888888"/>
</g>
<defs>
<clipPath id="clip0_701_313">
<rect width="21" height="21" fill="white" transform="translate(207 7)"/>
</clipPath>
</defs>
</svg>
