<svg width="320" height="320" viewBox="0 0 320 320" fill="none" xmlns="http://www.w3.org/2000/svg">
<g clip-path="url(#clip0_1643_2908)">
<rect width="320" height="320" fill="white"/>
<circle cx="30" cy="30" r="30" fill="#48EC9D" fill-opacity="0.2"/>
<path d="M20.1271 40.0781L24.0825 38.76L24.7856 39.0825C26.3875 39.9031 28.1259 40.3134 30.0009 40.3134C33.1846 40.2159 35.8359 39.1759 37.9546 37.1934C40.0734 35.2109 41.1721 32.8134 41.2509 30.0009C41.1728 27.1884 40.074 24.7909 37.9546 22.8084C35.8353 20.8259 33.184 19.7859 30.0009 19.6884C26.8171 19.7859 24.1659 20.8259 22.0471 22.8084C19.9284 24.7909 18.8296 27.1884 18.7509 30.0009C18.7509 31.0165 18.9268 32.0225 19.2787 33.0187C19.6306 34.015 20.1481 34.9525 20.8312 35.8312L21.4762 36.6806L20.1271 40.0781ZM18.779 42.4809C18.4078 42.5984 18.0903 42.5153 17.8265 42.2315C17.5628 41.9478 17.4993 41.6206 17.6362 41.25L19.3359 36.9721C18.5546 35.9371 17.949 34.8287 17.519 33.6468C17.089 32.465 16.874 31.249 16.874 29.999C16.9521 26.7765 18.2021 23.969 20.624 21.5765C23.0459 19.184 26.1709 17.929 29.999 17.8115C33.8271 17.929 36.9521 19.184 39.374 21.5765C41.7959 23.969 43.0459 26.7765 43.124 29.999C43.0459 33.2215 41.7959 36.029 39.374 38.4215C36.9521 40.814 33.8271 42.069 29.999 42.1865C27.8703 42.1865 25.8487 41.7178 23.9343 40.7803L18.779 42.4809ZM30 31.4943C29.7262 31.4943 29.4771 31.4309 29.2528 31.304C29.0284 31.1771 28.8478 30.9915 28.7109 30.7471C28.574 30.5028 28.5056 30.2537 28.5056 30C28.5056 29.7462 28.574 29.4971 28.7109 29.2528C28.8478 29.0084 29.0284 28.8228 29.2528 28.6959C29.4771 28.569 29.7262 28.5056 30 28.5056C30.43 28.5056 30.7865 28.6471 31.0696 28.9303C31.3528 29.2134 31.4943 29.57 31.4943 30C31.4943 30.43 31.3528 30.7865 31.0696 31.0696C30.7865 31.3528 30.43 31.4943 30 31.4943V31.4943ZM35.625 31.4943C35.3512 31.4943 35.1021 31.4309 34.8778 31.304C34.6534 31.1771 34.4728 30.9915 34.3359 30.7471C34.199 30.5028 34.1306 30.2537 34.1306 30C34.1306 29.7462 34.199 29.4971 34.3359 29.2528C34.4728 29.0084 34.6534 28.8228 34.8778 28.6959C35.1021 28.569 35.3512 28.5056 35.625 28.5056C36.055 28.5056 36.4115 28.6471 36.6946 28.9303C36.9778 29.2134 37.1193 29.57 37.1193 30C37.1193 30.43 36.9778 30.7865 36.6946 31.0696C36.4115 31.3528 36.055 31.4943 35.625 31.4943V31.4943ZM24.375 31.4943C24.1012 31.4943 23.8521 31.4309 23.6278 31.304C23.4034 31.1771 23.2228 30.9915 23.0859 30.7471C22.949 30.5028 22.8806 30.2537 22.8806 30C22.8806 29.7462 22.949 29.4971 23.0859 29.2528C23.2228 29.0084 23.4034 28.8228 23.6278 28.6959C23.8521 28.569 24.1012 28.5056 24.375 28.5056C24.805 28.5056 25.1615 28.6471 25.4446 28.9303C25.7278 29.2134 25.8693 29.57 25.8693 30C25.8693 30.43 25.7278 30.7865 25.4446 31.0696C25.1615 31.3528 24.805 31.4943 24.375 31.4943V31.4943Z" fill="#08080A" fill-opacity="0.96"/>
<circle cx="110" cy="30" r="30" fill="#8DFF33" fill-opacity="0.2"/>
<path d="M110 30C111.602 29.9606 112.93 29.4138 113.984 28.3594C115.039 27.305 115.586 25.9769 115.625 24.375C115.586 22.7731 115.039 21.445 113.984 20.3906C112.93 19.3362 111.602 18.7894 110 18.75C108.398 18.7894 107.07 19.3362 106.016 20.3906C104.961 21.445 104.414 22.7731 104.375 24.375C104.414 25.9769 104.961 27.305 106.016 28.3594C107.07 29.4138 108.398 29.9606 110 30ZM110 31.875C107.871 31.8162 106.104 31.0838 104.697 29.6775C103.291 28.2713 102.559 26.5037 102.5 24.375C102.559 22.2463 103.291 20.4787 104.697 19.0725C106.104 17.6662 107.871 16.9338 110 16.875C112.129 16.9338 113.896 17.6662 115.303 19.0725C116.709 20.4787 117.441 22.2463 117.5 24.375C117.441 26.5037 116.709 28.2713 115.303 29.6775C113.896 31.0838 112.129 31.8162 110 31.875ZM110 30C110.274 30 110.498 30.0878 110.674 30.2634C110.85 30.4391 110.938 30.6638 110.938 30.9375V38.4375C110.938 38.7112 110.85 38.9359 110.674 39.1116C110.498 39.2872 110.274 39.375 110 39.375C109.726 39.375 109.502 39.2872 109.326 39.1116C109.15 38.9359 109.062 38.7112 109.062 38.4375V30.9375C109.062 30.6638 109.15 30.4391 109.326 30.2634C109.502 30.0878 109.726 30 110 30V30ZM106.25 34.0134V35.9175C104.551 36.2106 103.193 36.5962 102.178 37.0744C101.162 37.5525 100.644 38.0066 100.625 38.4366C100.684 39.0422 101.587 39.6525 103.335 40.2675C105.083 40.8825 107.305 41.2097 110 41.2491C112.696 41.2097 114.917 40.8825 116.665 40.2675C118.412 39.6525 119.316 39.0422 119.375 38.4366C119.356 38.0066 118.838 37.5525 117.822 37.0744C116.807 36.5962 115.449 36.2106 113.75 35.9175V34.0134C115.977 34.3453 117.774 34.9069 119.141 35.6981C120.507 36.4894 121.211 37.4025 121.25 38.4375C121.172 39.7656 120.073 40.8691 117.954 41.7478C115.834 42.6266 113.183 43.0856 110 43.125C106.816 43.0856 104.165 42.6266 102.046 41.7478C99.9275 40.8691 98.8287 39.7656 98.75 38.4375C98.7894 37.4025 99.4925 36.4894 100.859 35.6981C102.226 34.9069 104.023 34.3453 106.25 34.0134Z" fill="#08080A" fill-opacity="0.96"/>
<circle cx="190" cy="30" r="30" fill="#F76D6D" fill-opacity="0.2"/>
<path d="M178.75 26.25V39.375H201.25V26.25H178.75ZM177.812 24.375H202.188C202.461 24.375 202.686 24.4628 202.862 24.6384C203.037 24.8141 203.125 25.0388 203.125 25.3125V40.3125C203.125 40.5862 203.037 40.8109 202.862 40.9866C202.686 41.1622 202.461 41.25 202.188 41.25H177.812C177.539 41.25 177.314 41.1622 177.138 40.9866C176.963 40.8109 176.875 40.5862 176.875 40.3125V25.3125C176.875 25.0388 176.963 24.8141 177.138 24.6384C177.314 24.4628 177.539 24.375 177.812 24.375ZM179.688 20.625H200.312V22.5H179.688V20.625ZM182.5 16.875H197.5V18.75H182.5V16.875Z" fill="#08080A" fill-opacity="0.96"/>
<circle cx="270" cy="29" r="30" fill="#4857EC" fill-opacity="0.2"/>
<path d="M265.518 36.5H259.688C259.414 36.5 259.189 36.4122 259.013 36.2366C258.838 36.0609 258.75 35.8363 258.75 35.5625V19.625H256.875C256.601 19.625 256.377 19.5372 256.201 19.3616C256.025 19.1859 255.938 18.9613 255.938 18.6875C255.938 18.4137 256.025 18.1891 256.201 18.0134C256.377 17.8378 256.601 17.75 256.875 17.75H283.125C283.399 17.75 283.623 17.8378 283.799 18.0134C283.975 18.1891 284.062 18.4137 284.062 18.6875C284.062 18.9613 283.975 19.1859 283.799 19.3616C283.623 19.5372 283.399 19.625 283.125 19.625H281.25V35.5625C281.25 35.8363 281.162 36.0609 280.987 36.2366C280.811 36.4122 280.586 36.5 280.312 36.5H274.482L277.734 42.125H275.566L272.314 36.5H267.684L264.432 42.125H262.264L265.518 36.5ZM279.375 19.625H260.625V34.625H279.375V19.625ZM265.049 29.6741C264.853 29.8497 264.629 29.9375 264.375 29.9375C264.121 29.9375 263.902 29.8447 263.716 29.6591C263.53 29.4734 263.438 29.2537 263.438 29C263.438 28.7463 263.525 28.5216 263.701 28.3259L268.037 24.0191L271.699 26.7734L274.892 22.7891C275.126 22.4959 275.424 22.3738 275.785 22.4225C276.147 22.4713 276.391 22.6666 276.517 23.0084C276.644 23.3503 276.591 23.6678 276.356 23.9609L272.049 29.3516L268.211 26.48L265.049 29.6741Z" fill="#08080A" fill-opacity="0.96"/>
<circle cx="27" cy="107" r="27" fill="#4857EC" fill-opacity="0.1"/>
<path d="M31.8866 111.488C30.6889 112.597 29.0646 113.219 27.371 113.219C25.6773 113.219 24.053 112.597 22.8553 111.488M22.5806 104.35H22.5966M32.1613 104.35H32.1773M41.7419 107.307C41.7419 109.054 41.3702 110.784 40.648 112.399C39.9258 114.013 38.8672 115.48 37.5328 116.716C36.1983 117.951 34.6141 118.932 32.8705 119.6C31.1269 120.269 29.2582 120.613 27.371 120.613C25.4837 120.613 23.615 120.269 21.8714 119.6C20.1279 118.932 18.5436 117.951 17.2092 116.716C15.8747 115.48 14.8161 114.013 14.0939 112.399C13.3717 110.784 13 109.054 13 107.307C13 103.777 14.5141 100.393 17.2092 97.8974C19.9042 95.4019 23.5596 94 27.371 94C31.1824 94 34.8377 95.4019 37.5328 97.8974C40.2279 100.393 41.7419 103.777 41.7419 107.307Z" stroke="#4857EC" stroke-width="3" stroke-linecap="round" stroke-linejoin="round"/>
<circle cx="107" cy="107" r="27" fill="#FFD6D6" fill-opacity="0.5"/>
<path d="M111.887 111.488C110.689 112.597 109.065 113.219 107.371 113.219C105.677 113.219 104.053 112.597 102.855 111.488M102.581 104.35H102.597M112.161 104.35H112.177M121.742 107.307C121.742 109.054 121.37 110.784 120.648 112.399C119.926 114.013 118.867 115.48 117.533 116.716C116.198 117.951 114.614 118.932 112.87 119.6C111.127 120.269 109.258 120.613 107.371 120.613C105.484 120.613 103.615 120.269 101.871 119.6C100.128 118.932 98.5436 117.951 97.2092 116.716C95.8747 115.48 94.8161 114.013 94.0939 112.399C93.3717 110.784 93 109.054 93 107.307C93 103.777 94.5141 100.393 97.2092 97.8974C99.9042 95.4019 103.56 94 107.371 94C111.182 94 114.838 95.4019 117.533 97.8974C120.228 100.393 121.742 103.777 121.742 107.307Z" stroke="#C66464" stroke-width="3" stroke-linecap="round" stroke-linejoin="round"/>
<circle cx="187" cy="107" r="27" fill="#BCFF87" fill-opacity="0.5"/>
<path d="M200.648 112.399C201.37 110.784 201.742 109.054 201.742 107.307C201.742 103.777 200.228 100.393 197.533 97.8974C194.838 95.4019 191.182 94 187.371 94C183.56 94 179.904 95.4019 177.209 97.8974C174.514 100.393 173 103.777 173 107.307C173 109.054 173.372 110.784 174.094 112.399C174.816 114.013 175.875 115.48 177.209 116.716C178.544 117.951 180.128 118.932 181.871 119.6C183.615 120.269 185.484 120.613 187.371 120.613C189.258 120.613 191.127 120.269 192.87 119.6C194.614 118.932 196.198 117.951 197.533 116.716C198.867 115.48 199.926 114.013 200.648 112.399Z" fill="#E8FFD6"/>
<path d="M191.887 111.488C190.689 112.597 189.065 113.219 187.371 113.219C185.677 113.219 184.053 112.597 182.855 111.488M182.581 104.35H182.597M192.161 104.35H192.177M201.742 107.307C201.742 109.054 201.37 110.784 200.648 112.399C199.926 114.013 198.867 115.48 197.533 116.716C196.198 117.951 194.614 118.932 192.87 119.6C191.127 120.269 189.258 120.613 187.371 120.613C185.484 120.613 183.615 120.269 181.871 119.6C180.128 118.932 178.544 117.951 177.209 116.716C175.875 115.48 174.816 114.013 174.094 112.399C173.372 110.784 173 109.054 173 107.307C173 103.777 174.514 100.393 177.209 97.8974C179.904 95.4019 183.56 94 187.371 94C191.182 94 194.838 95.4019 197.533 97.8974C200.228 100.393 201.742 103.777 201.742 107.307Z" stroke="#6AAF35" stroke-width="3" stroke-linecap="round" stroke-linejoin="round"/>
<path d="M20 170C20 164.477 15.5229 160 10 160C4.47715 160 0 164.477 0 170C0 174.991 3.65684 179.128 8.4375 179.879V172.891H5.89844V170H8.4375V167.797C8.4375 165.291 9.93047 163.906 12.2146 163.906C13.3084 163.906 14.4531 164.102 14.4531 164.102V166.563H13.1922C11.95 166.563 11.5625 167.333 11.5625 168.125V170H14.3359L13.8926 172.891H11.5625V179.879C16.3432 179.128 20 174.991 20 170Z" fill="black"/>
<path d="M40 161.801C42.6719 161.801 42.9883 161.812 44.0391 161.859C45.0156 161.902 45.543 162.066 45.8945 162.203C46.3594 162.383 46.6953 162.602 47.043 162.949C47.3945 163.301 47.6094 163.633 47.7891 164.098C47.9258 164.449 48.0898 164.98 48.1328 165.953C48.1797 167.008 48.1914 167.324 48.1914 169.992C48.1914 172.664 48.1797 172.98 48.1328 174.031C48.0898 175.008 47.9258 175.535 47.7891 175.887C47.6094 176.352 47.3906 176.688 47.043 177.035C46.6914 177.387 46.3594 177.602 45.8945 177.781C45.543 177.918 45.0117 178.082 44.0391 178.125C42.9844 178.172 42.668 178.184 40 178.184C37.3281 178.184 37.0117 178.172 35.9609 178.125C34.9844 178.082 34.457 177.918 34.1055 177.781C33.6406 177.602 33.3047 177.383 32.957 177.035C32.6055 176.684 32.3906 176.352 32.2109 175.887C32.0742 175.535 31.9102 175.004 31.8672 174.031C31.8203 172.977 31.8086 172.66 31.8086 169.992C31.8086 167.32 31.8203 167.004 31.8672 165.953C31.9102 164.977 32.0742 164.449 32.2109 164.098C32.3906 163.633 32.6094 163.297 32.957 162.949C33.3086 162.598 33.6406 162.383 34.1055 162.203C34.457 162.066 34.9883 161.902 35.9609 161.859C37.0117 161.812 37.3281 161.801 40 161.801ZM40 160C37.2852 160 36.9453 160.012 35.8789 160.059C34.8164 160.105 34.0859 160.277 33.4531 160.523C32.793 160.781 32.2344 161.121 31.6797 161.68C31.1211 162.234 30.7813 162.793 30.5234 163.449C30.2773 164.086 30.1055 164.812 30.0586 165.875C30.0117 166.945 30 167.285 30 170C30 172.715 30.0117 173.055 30.0586 174.121C30.1055 175.184 30.2773 175.914 30.5234 176.547C30.7813 177.207 31.1211 177.766 31.6797 178.32C32.2344 178.875 32.793 179.219 33.4492 179.473C34.0859 179.719 34.8125 179.891 35.875 179.938C36.9414 179.984 37.2813 179.996 39.9961 179.996C42.7109 179.996 43.0508 179.984 44.1172 179.938C45.1797 179.891 45.9102 179.719 46.543 179.473C47.1992 179.219 47.7578 178.875 48.3125 178.32C48.8672 177.766 49.2109 177.207 49.4648 176.551C49.7109 175.914 49.8828 175.188 49.9297 174.125C49.9766 173.059 49.9883 172.719 49.9883 170.004C49.9883 167.289 49.9766 166.949 49.9297 165.883C49.8828 164.82 49.7109 164.09 49.4648 163.457C49.2188 162.793 48.8789 162.234 48.3203 161.68C47.7656 161.125 47.207 160.781 46.5508 160.527C45.9141 160.281 45.1875 160.109 44.125 160.063C43.0547 160.012 42.7148 160 40 160Z" fill="black"/>
<path d="M40 164.863C37.1641 164.863 34.8633 167.164 34.8633 170C34.8633 172.836 37.1641 175.137 40 175.137C42.8359 175.137 45.1367 172.836 45.1367 170C45.1367 167.164 42.8359 164.863 40 164.863ZM40 173.332C38.1602 173.332 36.668 171.84 36.668 170C36.668 168.16 38.1602 166.668 40 166.668C41.8398 166.668 43.332 168.16 43.332 170C43.332 171.84 41.8398 173.332 40 173.332Z" fill="black"/>
<path d="M46.5391 164.66C46.5391 165.324 46 165.859 45.3398 165.859C44.6758 165.859 44.1406 165.32 44.1406 164.66C44.1406 163.996 44.6797 163.461 45.3398 163.461C46 163.461 46.5391 164 46.5391 164.66Z" fill="black"/>
<path d="M79.5818 165.2C79.4687 164.775 79.2459 164.386 78.9356 164.074C78.6253 163.762 78.2384 163.536 77.8136 163.42C76.25 163 70 163 70 163C70 163 63.75 163 62.1864 163.42C61.7616 163.536 61.3747 163.762 61.0644 164.074C60.7541 164.386 60.5313 164.775 60.4182 165.2C60 166.77 60 170.045 60 170.045C60 170.045 60 173.32 60.4182 174.891C60.5313 175.316 60.7541 175.705 61.0644 176.017C61.3747 176.329 61.7616 176.555 62.1864 176.67C63.75 177.091 70 177.091 70 177.091C70 177.091 76.25 177.091 77.8136 176.67C78.2384 176.555 78.6253 176.329 78.9356 176.017C79.2459 175.705 79.4687 175.316 79.5818 174.891C80 173.32 80 170.045 80 170.045C80 170.045 80 166.77 79.5818 165.2Z" fill="black"/>
<path d="M67.9546 172.974V167.026L73.1819 170L67.9546 172.974Z" fill="#FEFEFE"/>
<path fill-rule="evenodd" clip-rule="evenodd" d="M99.9965 160C97.6225 160.001 95.3263 160.842 93.5186 162.372C91.7109 163.902 90.5095 166.022 90.1292 168.352C89.7489 170.682 90.2145 173.07 91.4428 175.09C92.6711 177.11 94.5819 178.63 96.8337 179.377C97.3304 179.47 97.5176 179.162 97.5176 178.9C97.5176 178.638 97.5076 177.879 97.5043 177.049C94.7224 177.65 94.1346 175.875 94.1346 175.875C93.6808 174.723 93.0251 174.42 93.0251 174.42C92.1177 173.804 93.093 173.816 93.093 173.816C94.0981 173.886 94.6264 174.841 94.6264 174.841C95.5172 176.361 96.9661 175.922 97.5358 175.665C97.6252 175.021 97.8852 174.583 98.1717 174.334C95.9494 174.084 93.6146 173.231 93.6146 169.421C93.6008 168.433 93.9696 167.478 94.6446 166.752C94.5419 166.502 94.1991 165.491 94.7423 164.118C94.7423 164.118 95.5818 163.851 97.4927 165.137C99.1318 164.691 100.861 164.691 102.5 165.137C104.409 163.851 105.247 164.118 105.247 164.118C105.792 165.488 105.449 166.499 105.347 166.752C106.024 167.478 106.393 168.435 106.378 169.424C106.378 173.243 104.039 174.084 101.813 174.329C102.171 174.639 102.49 175.243 102.49 176.172C102.49 177.502 102.479 178.572 102.479 178.9C102.479 179.165 102.659 179.475 103.166 179.377C105.418 178.63 107.329 177.11 108.557 175.089C109.785 173.069 110.251 170.68 109.87 168.35C109.489 166.02 108.287 163.9 106.479 162.371C104.671 160.841 102.374 160 99.9998 160H99.9965Z" fill="black"/>
<path d="M126.94 168.39C126.37 168.39 125.92 168.89 125.92 169.5C125.92 170.11 126.38 170.61 126.94 170.61C127.51 170.61 127.96 170.11 127.96 169.5C127.97 168.89 127.51 168.39 126.94 168.39ZM130.59 168.39C130.02 168.39 129.57 168.89 129.57 169.5C129.57 170.11 130.03 170.61 130.59 170.61C131.16 170.61 131.61 170.11 131.61 169.5C131.61 168.89 131.16 168.39 130.59 168.39Z" fill="black"/>
<path d="M135.45 160H122.05C120.92 160 120 160.92 120 162.06V175.58C120 176.72 120.92 177.64 122.05 177.64H133.39L132.86 175.79L134.14 176.98L135.35 178.1L137.5 180V162.06C137.5 160.92 136.58 160 135.45 160ZM131.59 173.06C131.59 173.06 131.23 172.63 130.93 172.25C132.24 171.88 132.74 171.06 132.74 171.06C132.33 171.33 131.94 171.52 131.59 171.65C131.09 171.86 130.61 172 130.14 172.08C129.18 172.26 128.3 172.21 127.55 172.07C126.98 171.96 126.49 171.8 126.08 171.64C125.85 171.55 125.6 171.44 125.35 171.3C125.32 171.28 125.29 171.27 125.26 171.25C125.24 171.24 125.23 171.23 125.22 171.22C125.04 171.12 124.94 171.05 124.94 171.05C124.94 171.05 125.42 171.85 126.69 172.23C126.39 172.61 126.02 173.06 126.02 173.06C123.81 172.99 122.97 171.54 122.97 171.54C122.97 168.32 124.41 165.71 124.41 165.71C125.85 164.63 127.22 164.66 127.22 164.66L127.32 164.78C125.52 165.3 124.69 166.09 124.69 166.09C124.69 166.09 124.91 165.97 125.28 165.8C126.35 165.33 127.2 165.2 127.55 165.17C127.61 165.16 127.66 165.15 127.72 165.15C128.33 165.07 129.02 165.05 129.74 165.13C130.69 165.24 131.71 165.52 132.75 166.09C132.75 166.09 131.96 165.34 130.26 164.82L130.4 164.66C130.4 164.66 131.77 164.63 133.21 165.71C133.21 165.71 134.65 168.32 134.65 171.54C134.65 171.54 133.8 172.99 131.59 173.06V173.06Z" fill="black"/>
<path d="M158.641 160.537C158.39 159.821 157.296 159.821 157.044 160.537L155.768 164.172C155.713 164.328 155.606 164.464 155.463 164.561C155.319 164.657 155.146 164.709 154.969 164.709H150.842C150.029 164.709 149.689 165.673 150.348 166.117L153.687 168.363C153.831 168.459 153.938 168.595 153.992 168.752C154.047 168.908 154.047 169.076 153.992 169.232L152.717 172.867C152.465 173.584 153.351 174.18 154.009 173.737L157.349 171.491C157.492 171.394 157.665 171.342 157.842 171.342C158.02 171.342 158.193 171.394 158.336 171.491L161.676 173.737C162.334 174.18 163.22 173.584 162.968 172.867L161.693 169.232C161.638 169.076 161.638 168.908 161.693 168.752C161.747 168.595 161.854 168.459 161.998 168.363L165.337 166.117C165.995 165.673 165.657 164.709 164.843 164.709H160.715C160.538 164.709 160.365 164.657 160.222 164.56C160.079 164.464 159.972 164.328 159.917 164.172L158.641 160.537Z" fill="#F9C94E"/>
<path d="M177.641 160.537C177.39 159.821 176.296 159.821 176.044 160.537L174.768 164.172C174.713 164.328 174.606 164.464 174.463 164.561C174.319 164.657 174.146 164.709 173.969 164.709H169.842C169.029 164.709 168.689 165.673 169.348 166.117L172.687 168.363C172.831 168.459 172.938 168.595 172.992 168.752C173.047 168.908 173.047 169.076 172.992 169.232L171.717 172.867C171.465 173.584 172.351 174.18 173.009 173.737L176.349 171.491C176.492 171.394 176.665 171.342 176.842 171.342C177.02 171.342 177.193 171.394 177.336 171.491L180.676 173.737C181.334 174.18 182.22 173.584 181.968 172.867L180.693 169.232C180.638 169.076 180.638 168.908 180.693 168.752C180.747 168.595 180.854 168.459 180.998 168.363L184.337 166.117C184.995 165.673 184.657 164.709 183.843 164.709H179.715C179.538 164.709 179.365 164.657 179.222 164.56C179.079 164.464 178.972 164.328 178.917 164.172L177.641 160.537Z" stroke="#F9C94E" stroke-linecap="round" stroke-linejoin="round"/>
</g>
<defs>
<clipPath id="clip0_1643_2908">
<rect width="320" height="320" fill="white"/>
</clipPath>
</defs>
</svg>
