<svg width="424" height="48" viewBox="0 0 424 48" fill="none" xmlns="http://www.w3.org/2000/svg">
<g clip-path="url(#clip0_13_5721)">
<g clip-path="url(#clip1_13_5721)">
<path d="M36 22V20H34V18H30V14H26V10H22V6H10V42H22V40V38H26V34H30V30H34V28H36V26H38V22H36ZM26 26V30H22V34H18V38H14V10H18V14H22V18H26V22H30V26H26Z" fill="black"/>
</g>
<g clip-path="url(#clip2_13_5721)">
<path fill-rule="evenodd" clip-rule="evenodd" d="M56 6H68V10H72V14H76V18H80V20H82V28H80V30H76V34H72V38H68V42H56V6ZM72 30V26H76V22H72V18H68V14H64V10H60V38H64V34H68V30H72ZM84 6H88V42H84V6Z" fill="black"/>
</g>
<g clip-path="url(#clip3_13_5721)">
<path fill-rule="evenodd" clip-rule="evenodd" d="M104 6H108V42H104V6ZM120 10H124V6H136V42H124V38H120V34H116V30H112V28H110V20H112V18H116V14H120V10ZM116 22V26H120V30H124V34H128V38H132V10H128V14H124V18H120V22H116Z" fill="black"/>
</g>
<g clip-path="url(#clip4_13_5721)">
<path fill-rule="evenodd" clip-rule="evenodd" d="M166 6V8H164V10H162V12H160V14H158V16H156V18H154V20H152V22H150V26H152V28H154V30H156V32H158V34H160V36H162V38H164V40H166V42H170V6H166ZM166 32H164V30H162V28H160V26H158V22H160V20H162V18H164V16H166V32ZM176 28H178V20H176V18H174V30H176V28ZM182 12V14H184V34H182V36H174V32H178V30H180V18H178V16H174V12H182Z" fill="black"/>
</g>
<g clip-path="url(#clip5_13_5721)">
<path d="M202 6H198V42H202V6Z" fill="black"/>
<path d="M218 6H214V42H218V6Z" fill="black"/>
</g>
<g clip-path="url(#clip6_13_5721)">
<path d="M274 13L274 9L238 9L238 13L274 13Z" fill="black"/>
<path d="M274 26L274 22L238 22L238 26L274 26Z" fill="black"/>
<path d="M274 39L274 35L238 35L238 39L274 39Z" fill="black"/>
</g>
<g clip-path="url(#clip7_13_5721)">
<rect x="313" y="6" width="4" height="12" fill="black"/>
<rect x="295" y="42" width="4" height="12" transform="rotate(-180 295 42)" fill="black"/>
<rect x="299" y="46" width="4" height="4" transform="rotate(-180 299 46)" fill="black"/>
<rect x="309" y="18" width="4" height="4" fill="black"/>
<rect x="299" y="30" width="4" height="4" transform="rotate(-180 299 30)" fill="black"/>
<rect width="4" height="10" transform="matrix(-1 0 0 1 291 14)" fill="black"/>
<rect width="4" height="10" transform="matrix(1 0 0 -1 317 34)" fill="black"/>
<rect x="287" y="10" width="34" height="4" fill="black"/>
<rect x="321" y="38" width="34" height="4" transform="rotate(-180 321 38)" fill="black"/>
<rect x="309" y="2" width="4" height="4" fill="black"/>
</g>
<g clip-path="url(#clip8_13_5721)">
<rect x="361" y="6" width="4" height="12" fill="black"/>
<rect x="343" y="42" width="4" height="12" transform="rotate(-180 343 42)" fill="black"/>
<rect x="357" y="2" width="4" height="4" fill="black"/>
<rect x="347" y="46" width="4" height="4" transform="rotate(-180 347 46)" fill="black"/>
<rect x="357" y="18" width="4" height="4" fill="black"/>
<rect x="350" y="20" width="2" height="2" fill="black"/>
<rect x="350" y="29" width="2" height="2" fill="black"/>
<rect x="354" y="29" width="2" height="2" fill="black"/>
<rect x="347" y="30" width="4" height="4" transform="rotate(-180 347 30)" fill="black"/>
<rect width="4" height="10" transform="matrix(-1 0 0 1 339 14)" fill="black"/>
<rect width="4" height="10" transform="matrix(1 0 0 -1 365 34)" fill="black"/>
<rect x="335" y="10" width="34" height="4" fill="black"/>
<rect x="369" y="38" width="34" height="4" transform="rotate(-180 369 38)" fill="black"/>
<rect width="2" height="12" transform="matrix(-1 0 0 1 354 19)" fill="black"/>
</g>
<g clip-path="url(#clip9_13_5721)">
<rect x="413" y="8" width="4" height="12" fill="black"/>
<rect width="4" height="12" transform="matrix(1 0 0 -1 413 42)" fill="black"/>
<rect x="409" y="4" width="4" height="4" fill="black"/>
<rect width="4" height="4" transform="matrix(1 0 0 -1 409 46)" fill="black"/>
<rect x="409" y="20" width="4" height="4" fill="black"/>
<rect x="398" y="30" width="4" height="4" fill="black"/>
<rect x="399" y="16" width="4" height="4" fill="black"/>
<rect x="396" y="19" width="4" height="4" fill="black"/>
<rect x="393" y="16" width="4" height="4" fill="black"/>
<rect x="396" y="27" width="4" height="4" fill="black"/>
<rect x="392" y="30" width="4" height="4" fill="black"/>
<rect x="393" y="23" width="4" height="4" fill="black"/>
<rect width="4" height="4" transform="matrix(1 0 0 -1 409 30)" fill="black"/>
<rect x="402" y="12" width="19" height="4" fill="black"/>
<rect x="379" y="12" width="15" height="4" fill="black"/>
<rect x="379" y="34" width="14" height="4" fill="black"/>
<rect width="20" height="4" transform="matrix(1 0 0 -1 401 38)" fill="black"/>
</g>
</g>
<defs>
<clipPath id="clip0_13_5721">
<rect width="424" height="48" fill="white"/>
</clipPath>
<clipPath id="clip1_13_5721">
<rect width="48" height="48" fill="white"/>
</clipPath>
<clipPath id="clip2_13_5721">
<rect width="48" height="48" fill="white" transform="translate(48)"/>
</clipPath>
<clipPath id="clip3_13_5721">
<rect width="48" height="48" fill="white" transform="translate(96)"/>
</clipPath>
<clipPath id="clip4_13_5721">
<rect width="48" height="48" fill="white" transform="translate(144)"/>
</clipPath>
<clipPath id="clip5_13_5721">
<rect width="48" height="48" fill="white" transform="translate(184)"/>
</clipPath>
<clipPath id="clip6_13_5721">
<rect width="48" height="48" fill="white" transform="translate(232)"/>
</clipPath>
<clipPath id="clip7_13_5721">
<rect width="48" height="48" fill="white" transform="translate(280)"/>
</clipPath>
<clipPath id="clip8_13_5721">
<rect width="48" height="48" fill="white" transform="translate(328)"/>
</clipPath>
<clipPath id="clip9_13_5721">
<rect width="48" height="48" fill="white" transform="translate(376)"/>
</clipPath>
</defs>
</svg>
