<svg width="328" height="378" viewBox="0 0 328 378" fill="none" xmlns="http://www.w3.org/2000/svg">
<path fill-rule="evenodd" clip-rule="evenodd" d="M326.78 240.1C324.56 239.02 319.28 239.92 316.78 240.44C315.862 239.414 314.703 238.632 313.408 238.164C312.113 237.697 310.722 237.558 309.36 237.76C307.12 238.32 306.58 241.08 306.68 243.4C305.24 243.14 303.68 242.96 302.24 242.82C302.36 242.38 302.74 241.76 302.62 241.32C302.555 241.163 302.457 241.021 302.333 240.906C302.208 240.79 302.06 240.703 301.899 240.649C301.737 240.596 301.566 240.579 301.397 240.598C301.228 240.617 301.066 240.672 300.92 240.76C300.521 241.078 300.153 241.433 299.82 241.82C299.82 241.12 300.4 240 299.7 239.82C299 239.64 296.82 241.6 296.2 242.3C291.607 241.794 286.973 241.794 282.38 242.3C276.367 242.731 270.7 245.274 266.38 249.48C290.7 221.48 301.38 202.24 301.1 178.26C300.82 154.28 272.32 142.84 260.6 142.54C249.22 142.26 237.48 148.54 236.88 148.54C226.6 150.54 199.64 147.56 193.98 149.92C194.049 147.386 193.595 144.864 192.645 142.514C191.695 140.163 190.271 138.034 188.46 136.26C185.22 132.72 180.04 131.4 174.78 131.62C167.28 131.96 159.84 135.1 156.12 141.62C154.887 143.731 154.161 146.1 154 148.54C154 149.16 152.72 159.36 156 167.08C156.74 169.034 157.923 170.791 159.457 172.21C160.991 173.63 162.834 174.674 164.84 175.26C161.607 179.546 158.641 184.028 155.96 188.68C155.34 189.98 155.8 190.68 156.7 190.68C157.6 190.68 158.8 190.44 159.64 190.48C158.32 194.1 154.96 203.54 154.14 207.28C150.028 210.049 146.325 213.381 143.14 217.18C137.14 224.06 134.34 231.52 127.54 235.5L125.54 236.62C128.26 228.36 133.4 211.96 131.54 211.94C129.68 211.92 125.16 227.7 122.28 238.4C119.2 240.1 117.64 241.18 116.56 244.54C116.208 245.389 116.027 246.3 116.027 247.22C116.027 248.139 116.208 249.05 116.56 249.9C116.688 250.172 116.884 250.407 117.129 250.582C117.375 250.758 117.661 250.867 117.96 250.9C118.2 250.9 118.2 250.68 117.54 252.14C117.225 252.23 116.928 252.372 116.66 252.56L107.04 246.7C106.82 246.7 109.58 246.32 51.04 253.94C49.94 253.12 48.78 252.26 47.58 251.32C18.82 228.94 112.74 204.92 120.26 174.34C127 146.96 88.26 141.44 96.86 115.72C105.46 89.9998 161.7 97.1998 214.64 94.1198C267.58 91.0398 288.64 37.5998 250.1 9.75977C211.56 -18.0802 171.96 21.4598 162.6 31.5598C153.24 41.6598 142.44 54.8798 112.12 53.5598C81.8 52.2398 42.12 57.3798 27.58 101.34C20.58 122.38 26.86 137.14 36.2 148.84C39.3282 145.657 43.1971 143.3 47.46 141.98C49.94 141.38 52.4 141.7 53.1 144.16C54.42 148.68 48.94 155.7 45.76 159.2C53.76 166.92 61.44 173.44 64.46 180.18C69.5 191.5 45.34 199.88 35.14 206.5C24.94 213.12 9.36 233.6 18.92 253.48C19.6381 255.003 20.4393 256.485 21.32 257.92C1.04 260.54 0.339999 260.54 0.139999 260.66C-0.0600006 260.78 -6.10948e-07 261.14 0.139999 261.34H0C1.8 263.34 54.78 339.06 87.3 377.54L87.88 377.66C94.92 374.28 222.68 312.26 215.88 308.44C215.88 308.44 122.48 256.3 120.26 254.98C120.607 254.384 120.908 253.762 121.16 253.12C121.271 253.111 121.375 253.065 121.455 252.988C121.535 252.912 121.586 252.81 121.6 252.7V251.62C122.84 252.04 124.78 250.84 125.78 249.94C127.78 248.1 130.78 242.98 133 242.3C137.427 241.197 141.793 239.862 146.08 238.3C163.9 231.62 171.3 224.14 179.06 212.06C180.342 210.172 181.434 208.163 182.32 206.06C186.848 210.951 192.354 214.835 198.48 217.46C182.32 236.12 184.86 247.96 190.7 254.42C196.04 260.32 204.7 258.24 206.12 257.8C206.12 266.68 209.12 286.4 210.12 288.38C210.64 289.52 208.9 290.38 208.54 292.64C208.351 293.788 208.499 294.967 208.968 296.032C209.437 297.097 210.205 298.003 211.18 298.64C213.4 300.04 217.18 300.12 215.7 297.9C215.206 297.266 214.65 296.683 214.04 296.16C214.62 296.34 215.26 296.58 216.04 296.86C223.34 299.72 224.3 301.02 225.64 300.64C225.82 300.598 225.988 300.517 226.133 300.403C226.279 300.289 226.397 300.145 226.48 299.98C226.64 300.09 226.821 300.166 227.012 300.201C227.202 300.237 227.399 300.232 227.587 300.187C227.776 300.142 227.953 300.057 228.107 299.939C228.261 299.82 228.388 299.671 228.48 299.5C228.548 299.37 228.584 299.226 228.584 299.08C228.584 298.933 228.548 298.789 228.48 298.66C228.734 298.233 228.819 297.726 228.72 297.24C228.72 295.44 221.84 289.56 220.44 288.4C220.64 286.4 221.7 281.96 224.34 270.16C237.98 285.54 283.84 264.16 286.34 263.08C286.76 263.52 303.7 256.3 305.66 255.26C305.46 255.26 327.14 245.46 327.96 241.86C327.96 241.02 327.42 240.48 326.78 240.1V240.1ZM249.42 59.0198C249.751 59.0302 250.064 59.1703 250.292 59.4098C250.52 59.6493 250.645 59.969 250.64 60.2998C250.645 60.4643 250.618 60.6282 250.559 60.782C250.5 60.9357 250.412 61.0763 250.298 61.1954C250.185 61.3146 250.049 61.4099 249.898 61.4759C249.747 61.5419 249.585 61.5772 249.42 61.5798C249.255 61.5772 249.091 61.542 248.939 61.4762C248.787 61.4105 248.65 61.3155 248.535 61.1966C248.42 61.0778 248.329 60.9374 248.268 60.7835C248.207 60.6296 248.177 60.4652 248.18 60.2998C248.177 60.1343 248.207 59.9699 248.268 59.816C248.329 59.6622 248.42 59.5218 248.535 59.4029C248.65 59.284 248.787 59.189 248.939 59.1233C249.091 59.0575 249.255 59.0224 249.42 59.0198V59.0198ZM238.12 24.0998C238.282 24.0997 238.442 24.132 238.592 24.1945C238.741 24.2571 238.876 24.3487 238.99 24.4641C239.103 24.5796 239.193 24.7164 239.253 24.8668C239.313 25.0171 239.343 25.1779 239.34 25.3398C239.362 25.5117 239.347 25.6864 239.297 25.8522C239.246 26.018 239.161 26.1711 239.046 26.3013C238.932 26.4315 238.791 26.5358 238.633 26.6073C238.475 26.6787 238.303 26.7157 238.13 26.7157C237.957 26.7157 237.785 26.6787 237.627 26.6073C237.469 26.5358 237.328 26.4315 237.214 26.3013C237.099 26.1711 237.014 26.018 236.963 25.8522C236.913 25.6864 236.898 25.5117 236.92 25.3398C236.917 25.1796 236.946 25.0204 237.005 24.8713C237.064 24.7223 237.152 24.5863 237.263 24.4712C237.375 24.356 237.508 24.264 237.655 24.2002C237.802 24.1365 237.96 24.1024 238.12 24.0998ZM200.52 79.2798C200.377 79.2538 200.248 79.1785 200.155 79.067C200.062 78.9556 200.011 78.815 200.011 78.6698C200.011 78.5246 200.062 78.384 200.155 78.2725C200.248 78.161 200.377 78.0857 200.52 78.0598C200.687 78.0598 200.847 78.1261 200.965 78.2443C201.084 78.3624 201.15 78.5227 201.15 78.6898C201.15 78.8569 201.084 79.0171 200.965 79.1352C200.847 79.2534 200.687 79.3198 200.52 79.3198V79.2798ZM195.08 24.3398C195.08 23.5398 197.08 23.1398 197.96 23.0198C199.414 22.8277 200.886 22.8277 202.34 23.0198C203.241 21.3654 204.35 19.833 205.64 18.4598C206.06 18.1198 206.44 17.9998 206.82 18.4598C207.724 20.2863 208.306 22.2552 208.54 24.2798C211.64 25.0798 215.96 26.5598 213.36 28.4198C212.56 28.9998 211.14 29.5998 209.6 30.4198C209.772 32.0337 209.826 33.658 209.76 35.2798C209.76 36.0198 209.56 37.1398 208.82 37.2798C207.32 37.5398 206.16 35.4598 203.8 33.4198C201.54 34.5398 197.02 37.0198 196.92 34.6398C197.165 32.6098 197.767 30.6393 198.7 28.8198C196.4 26.6398 194.94 25.5798 195.08 24.3798V24.3398ZM193.08 61.1198C193.075 62.5158 192.711 63.887 192.022 65.1012C191.333 66.3153 190.343 67.3312 189.146 68.051C187.95 68.7707 186.589 69.1698 185.193 69.2099C183.798 69.25 182.416 68.9296 181.18 68.2798L192.82 59.0398C192.999 59.7325 193.093 60.4444 193.1 61.1598L193.08 61.1198ZM192.58 58.2998C189.38 60.7598 185.08 64.2998 180.78 68.0398C180.456 67.8447 180.149 67.624 179.86 67.3798C184.04 63.1598 188.14 58.3998 190.68 55.3798C191.516 56.2242 192.17 57.2318 192.6 58.3398L192.58 58.2998ZM190.24 54.9598C189.44 55.8198 182.48 63.6598 179.48 66.9598C178.626 66.1756 177.945 65.222 177.48 64.1598C180.52 61.9598 184.66 58.8998 189.26 55.2798L189.98 54.6998L190.24 54.9598ZM184.98 52.9598C186.584 52.9581 188.152 53.4389 189.48 54.3398L186.66 56.3398C186.02 56.8198 181.16 60.6398 177.32 63.6398C176.913 62.4208 176.8 61.1227 176.99 59.8516C177.181 58.5806 177.67 57.3728 178.417 56.3271C179.164 55.2814 180.149 54.4275 181.289 53.8352C182.43 53.243 183.695 52.9293 184.98 52.9198V52.9598ZM165.7 49.6798C165.943 49.6718 166.183 49.7365 166.388 49.8656C166.594 49.9948 166.757 50.1824 166.855 50.4045C166.954 50.6266 166.984 50.8731 166.941 51.1123C166.899 51.3515 166.786 51.5726 166.617 51.7473C166.448 51.9219 166.231 52.0422 165.993 52.0926C165.755 52.143 165.508 52.1213 165.283 52.0302C165.058 51.9392 164.865 51.7829 164.729 51.5815C164.593 51.3801 164.52 51.1427 164.52 50.8998C164.54 50.5956 164.676 50.3105 164.899 50.1025C165.121 49.8945 165.415 49.7791 165.72 49.7798L165.7 49.6798ZM154.68 79.9598C155.147 79.9755 155.599 80.1283 155.98 80.3992C156.36 80.6701 156.653 81.047 156.821 81.4831C156.989 81.9191 157.025 82.3949 156.924 82.8512C156.823 83.3075 156.591 83.724 156.255 84.0489C155.919 84.3738 155.495 84.5927 155.036 84.6782C154.576 84.7637 154.102 84.7122 153.672 84.5299C153.241 84.3477 152.874 84.0428 152.616 83.6533C152.358 83.2639 152.22 82.807 152.22 82.3398C152.236 81.6996 152.502 81.0913 152.963 80.6461C153.423 80.2008 154.04 79.9543 154.68 79.9598V79.9598ZM123.56 74.3198C124.42 74.3198 124.42 75.8598 123.56 75.8598C122.7 75.8598 122.68 74.3198 123.56 74.3198ZM42.22 118.54C42.1251 118.556 42.0277 118.552 41.9346 118.527C41.8415 118.502 41.7551 118.457 41.6812 118.395C41.6074 118.333 41.5481 118.256 41.5074 118.169C41.4666 118.081 41.4455 117.986 41.4455 117.89C41.4455 117.793 41.4666 117.698 41.5074 117.611C41.5481 117.524 41.6074 117.446 41.6812 117.384C41.7551 117.322 41.8415 117.277 41.9346 117.252C42.0277 117.227 42.1251 117.223 42.22 117.24C42.3149 117.223 42.4123 117.227 42.5054 117.252C42.5985 117.277 42.6849 117.322 42.7588 117.384C42.8326 117.446 42.8919 117.524 42.9326 117.611C42.9734 117.698 42.9945 117.793 42.9945 117.89C42.9945 117.986 42.9734 118.081 42.9326 118.169C42.8919 118.256 42.8326 118.333 42.7588 118.395C42.6849 118.457 42.5985 118.502 42.5054 118.527C42.4123 118.552 42.3149 118.556 42.22 118.54ZM85.22 197.06C84.9512 197.029 84.6972 196.921 84.4886 196.748C84.28 196.576 84.1258 196.347 84.0446 196.089C83.9634 195.831 83.9587 195.555 84.0311 195.294C84.1035 195.034 84.2498 194.8 84.4524 194.62C84.6551 194.441 84.9053 194.324 85.1728 194.284C85.4404 194.244 85.7138 194.283 85.96 194.395C86.2062 194.507 86.4147 194.688 86.5602 194.916C86.7058 195.144 86.7821 195.409 86.78 195.68C86.7543 196.069 86.576 196.432 86.2838 196.691C85.9917 196.949 85.6094 197.082 85.22 197.06V197.06ZM89.96 63.2998C90.2338 63.2958 90.5025 63.3734 90.7321 63.5226C90.9616 63.6718 91.1416 63.8859 91.2491 64.1377C91.3566 64.3895 91.3868 64.6675 91.3359 64.9365C91.2849 65.2055 91.1551 65.4533 90.9629 65.6483C90.7707 65.8433 90.5249 65.9767 90.2567 66.0316C89.9884 66.0865 89.7099 66.0604 89.4566 65.9565C89.2033 65.8527 88.9866 65.6758 88.834 65.4485C88.6815 65.2211 88.6 64.9536 88.6 64.6798C88.6 64.3172 88.7426 63.9692 88.9971 63.711C89.2516 63.4527 89.5975 63.305 89.96 63.2998V63.2998ZM91.12 135.12C91.1182 135.315 91.0602 135.506 90.9532 135.669C90.8461 135.833 90.6944 135.962 90.516 136.041C90.3376 136.121 90.1401 136.148 89.947 136.119C89.7539 136.089 89.5732 136.005 89.4265 135.876C89.2798 135.747 89.1732 135.579 89.1195 135.391C89.0657 135.203 89.067 135.004 89.1232 134.817C89.1793 134.63 89.2881 134.463 89.4364 134.335C89.5848 134.208 89.7665 134.127 89.96 134.1C90.1005 134.089 90.2418 134.107 90.3749 134.153C90.5081 134.199 90.6302 134.273 90.7335 134.369C90.8369 134.465 90.9193 134.581 90.9755 134.71C91.0316 134.839 91.0604 134.979 91.06 135.12H91.12ZM91.58 164.66C92.78 163.72 96.32 160.8 97.38 161.72C98.44 162.64 97.52 164.58 97.38 167.34C99.6 168.4 104.2 170.42 102.4 171.7C100.637 172.561 98.7457 173.129 96.8 173.38C96.46 176.28 96.48 177.76 95.5 178.26C94.82 178.58 93.32 177.36 92.76 176.84C91.684 175.922 90.7416 174.858 89.96 173.68C88.1333 173.9 86.2867 173.9 84.46 173.68C83.98 173.56 83.62 173.34 83.72 172.86C83.94 171.76 86.42 169.42 87.24 168.64C86.72 167.5 85.5 164.64 85.92 163.5C86.52 161.92 89.1 163.66 91.52 164.66H91.58ZM85.08 100.22C85.5 100.22 85.72 100.52 85.66 101.04C85.2414 102.524 84.608 103.939 83.78 105.24C84.6376 106.138 85.3708 107.147 85.96 108.24C87.96 112.1 85.18 111.12 81.06 110.24C80.0885 111.684 78.8537 112.933 77.42 113.92C75.56 114.84 75.14 110.92 74.82 108.7C72 107.96 69.76 108.06 69.18 106.92C68.6 105.78 72.92 104.04 74.16 103.48C74.02 101.48 73.16 98.7998 74.88 98.8798C76.6231 99.4064 78.2235 100.323 79.56 101.56C81.3175 100.824 83.1807 100.371 85.08 100.22V100.22ZM59.6 156.1C59.377 156.136 59.1488 156.123 58.9312 156.062C58.7136 156.001 58.5118 155.894 58.3398 155.748C58.1677 155.601 58.0296 155.419 57.9348 155.214C57.8401 155.009 57.791 154.786 57.791 154.56C57.791 154.334 57.8401 154.111 57.9348 153.906C58.0296 153.7 58.1677 153.518 58.3398 153.372C58.5118 153.225 58.7136 153.118 58.9312 153.057C59.1488 152.997 59.377 152.984 59.6 153.02C59.823 152.984 60.0512 152.997 60.2688 153.057C60.4864 153.118 60.6882 153.225 60.8602 153.372C61.0323 153.518 61.1704 153.7 61.2652 153.906C61.3599 154.111 61.409 154.334 61.409 154.56C61.409 154.786 61.3599 155.009 61.2652 155.214C61.1704 155.419 61.0323 155.601 60.8602 155.748C60.6882 155.894 60.4864 156.001 60.2688 156.062C60.0512 156.123 59.823 156.136 59.6 156.1V156.1ZM48.32 95.6798C48.2463 95.6615 48.1808 95.6191 48.1341 95.5593C48.0873 95.4995 48.0619 95.4257 48.0619 95.3498C48.0619 95.2738 48.0873 95.2001 48.1341 95.1403C48.1808 95.0805 48.2463 95.038 48.32 95.0198C52.7 94.7198 57.68 94.5798 62.06 94.5798C58.4097 92.0195 54.5018 89.8477 50.4 88.0998C50.3131 88.0731 50.2395 88.0145 50.1941 87.9358C50.1486 87.8571 50.1346 87.7641 50.1548 87.6754C50.1751 87.5868 50.2281 87.5092 50.3033 87.458C50.3784 87.4069 50.4701 87.3861 50.56 87.3998C55.1062 87.4483 59.5783 88.5578 63.62 90.6398C60.9616 87.9907 58.1501 85.4997 55.2 83.1798C55.1368 83.1286 55.094 83.0564 55.0795 82.9764C55.0649 82.8964 55.0795 82.8138 55.1207 82.7436C55.1618 82.6734 55.2267 82.6203 55.3037 82.5939C55.3806 82.5676 55.4645 82.5696 55.54 82.5998C60.5814 84.2254 65.3139 86.6863 69.54 89.8798C73.7117 92.9367 77.3305 96.6839 80.24 100.96C80.24 101.14 80.06 101.28 79.94 101.1C77.0324 96.8517 73.4204 93.1315 69.26 90.0998C65.5538 87.3816 61.4708 85.2188 57.14 83.6798C58.6 84.8598 64.52 89.6798 65.3 91.4598C65.46 91.7798 65.06 92.0798 64.72 91.8798C62.584 90.6901 60.315 89.757 57.96 89.0998C56.1247 88.5508 54.2322 88.2152 52.32 88.0998C54.62 89.1998 61.76 92.6998 63.22 94.7798C63.2574 94.8354 63.2784 94.9004 63.2808 94.9674C63.2833 95.0344 63.2669 95.1008 63.2337 95.159C63.2004 95.2172 63.1515 95.265 63.0926 95.2969C63.0336 95.3289 62.9669 95.3437 62.9 95.3398C62.68 95.3398 57.16 95.3398 51.3 95.5398C58.22 96.8598 67.3 99.3998 73.08 103.54C73.24 103.66 73.08 103.9 72.88 103.78C66.6 99.3998 55.74 96.6798 48.32 95.6798V95.6798ZM161.56 136.98C168.38 131.84 181.9 130.48 187.82 136.98C189.564 138.68 190.934 140.724 191.843 142.983C192.752 145.242 193.18 147.666 193.1 150.1C192.634 154.511 190.737 158.648 187.7 161.88C187.34 162.24 187.34 161.88 187.46 161.7C187.804 161.205 188.032 160.64 188.127 160.045C188.222 159.451 188.181 158.842 188.008 158.265C187.835 157.688 187.534 157.158 187.128 156.714C186.721 156.27 186.219 155.923 185.66 155.7C181.88 153.98 180.74 160.32 177.98 161.1C175.58 161.8 176.48 156.2 176.66 152.46C176.912 150.815 176.533 149.137 175.6 147.76C173.939 145.977 171.884 144.608 169.6 143.76C165.595 142.147 161.246 141.576 156.96 142.1C158.13 140.099 159.695 138.357 161.56 136.98V136.98ZM156.82 166.8C153.52 159 154.96 148.64 154.96 148.64C155.121 146.536 155.728 144.491 156.74 142.64C161.062 142.201 165.424 142.89 169.4 144.64C171.563 145.45 173.512 146.743 175.1 148.42C177.1 151.06 175.1 156.1 175.74 160.04C175.98 161.58 176.7 162.56 178.2 162.04C181.3 161.16 182.34 155.28 185.32 156.64C188.3 158 187.76 161.9 184.24 163.38C182.88 163.96 183 165.26 184.04 165.38C184.58 165.38 185.64 165.08 187.26 163.78C189.632 161.461 191.498 158.676 192.74 155.6C195.521 156.187 198.211 157.142 200.74 158.44C204.3 160.06 208.5 162.32 211.82 164.26C206.76 165.466 202.148 168.087 198.522 171.816C194.896 175.545 192.405 180.228 191.34 185.32C190.58 185.32 190.64 184.24 190.12 183.84C189.6 183.44 189.28 183.84 188.66 184.04C188.672 183.547 188.562 183.059 188.34 182.62C188.34 181.46 186.44 182.14 185.34 182.5C185.353 182.004 185.279 181.51 185.12 181.04C185.58 179.56 182.9 180.3 181.4 180.72C181.513 180.152 181.513 179.568 181.4 179C181.54 177.84 179 178.58 177.94 179C178.031 178.332 177.99 177.652 177.82 177C177.26 176.22 174.3 177.86 174.18 177.12C174.19 176.572 174.298 176.03 174.5 175.52C174.84 174.3 173.18 175.06 172.7 174.98C172.682 174.99 172.661 174.996 172.64 174.996C172.619 174.996 172.598 174.99 172.58 174.98V174.74C174.253 174.281 175.859 173.609 177.36 172.74C178.123 173.864 179.266 174.674 180.58 175.02C181.773 175.375 183.043 175.378 184.238 175.029C185.433 174.68 186.501 173.992 187.315 173.05C188.128 172.108 188.652 170.95 188.823 169.717C188.995 168.484 188.806 167.228 188.28 166.1C188.28 165.88 187.84 166.1 187.94 166.24C188.199 167.006 188.3 167.817 188.238 168.623C188.176 169.43 187.951 170.215 187.577 170.933C187.204 171.65 186.689 172.284 186.064 172.798C185.439 173.311 184.716 173.693 183.94 173.92L179.1 170.94C178.92 170.82 178.94 170.94 177.88 171.62C177.215 170.307 177.037 168.801 177.377 167.369C177.718 165.937 178.555 164.672 179.74 163.8C181.137 162.863 182.799 162.4 184.48 162.48C184.52 162.467 184.555 162.441 184.58 162.407C184.604 162.373 184.618 162.332 184.618 162.29C184.618 162.248 184.604 162.207 184.58 162.172C184.555 162.138 184.52 162.113 184.48 162.1C182.679 161.882 180.857 162.269 179.3 163.2C177.886 164.139 176.872 165.569 176.455 167.214C176.037 168.859 176.246 170.6 177.04 172.1C173.494 174.117 169.427 175.029 165.36 174.72C163.41 174.172 161.619 173.168 160.134 171.791C158.649 170.414 157.513 168.703 156.82 166.8V166.8ZM187.96 184.56C188.485 184.447 188.996 184.273 189.48 184.04C190.36 183.72 190.12 185.48 191.24 185.5C191.04 186.44 190.92 187.18 190.86 187.64C189.92 187.3 189.04 186.92 188.16 186.56C188.199 185.887 188.131 185.212 187.96 184.56V184.56ZM187.96 184.12C187.96 184.12 187.96 184.02 188.16 183.34C188.21 183.592 188.312 183.83 188.46 184.04L187.96 184.1V184.12ZM187.76 184.5C187.658 185.163 187.658 185.837 187.76 186.5C186.36 185.92 185.06 185.32 183.76 184.72C183.759 184.342 183.684 183.969 183.54 183.62C184.46 183.62 187.54 182.14 187.68 182.58C187.82 183.02 187.1 184.1 187.76 184.5ZM183.34 183.48C183.336 183.792 183.383 184.103 183.48 184.4C182.96 184.16 180.82 183.08 180.28 182.8C180.27 182.373 180.203 181.949 180.08 181.54C181.279 181.374 182.463 181.113 183.62 180.76C183.76 180.76 184.66 180.64 184.58 180.76C184.5 181.34 182.46 183.02 183.34 183.48ZM179.84 182.56C178.82 182.02 177.84 181.5 177.08 181.02C177.093 180.596 177.019 180.173 176.86 179.78C177.182 179.835 177.514 179.778 177.8 179.62C178.719 179.201 179.711 178.964 180.72 178.92C180.297 179.408 179.934 179.945 179.64 180.52C179.561 181.206 179.629 181.902 179.84 182.56V182.56ZM176.62 180.76L174.4 179.42C174.445 178.827 174.384 178.231 174.22 177.66C174.86 177.8 176.52 177.14 177.28 177.2C176.918 177.69 176.591 178.205 176.3 178.74C176.3 179.426 176.408 180.107 176.62 180.76V180.76ZM177.48 177.86C177.43 178.258 177.43 178.661 177.48 179.06C177.34 179.06 176.88 179.28 176.84 179.06C176.8 178.84 177.24 178.1 177.48 177.86ZM181 179.58C180.988 179.971 181.035 180.362 181.14 180.74C180.832 180.853 180.508 180.914 180.18 180.92C180.18 180.92 180.1 180.64 181 179.58V179.58ZM184.84 181.58C184.866 181.909 184.94 182.232 185.06 182.54C184.662 182.692 184.254 182.818 183.84 182.92C184.08 182.56 184.4 182.1 184.84 181.56V181.58ZM173.82 177.42C173.81 178.02 173.884 178.62 174.04 179.2C173.699 178.991 173.366 178.771 173.04 178.54L172.58 175.18C173.08 175.18 174.12 174.88 174.12 175.18C174.12 175.48 173.28 176.8 173.82 177.4V177.42ZM178.1 172.02C178.38 171.84 178.68 171.62 178.96 171.4L183.36 174.1C182.384 174.296 181.372 174.213 180.441 173.859C179.511 173.505 178.699 172.895 178.1 172.1V172.02ZM156.68 189.78C156.2 189.64 158.96 185.36 159.28 184.86C160.26 183.28 165 175.96 165.4 175.36C167.053 175.457 168.711 175.356 170.34 175.06C170.66 186.9 172.8 191.82 175.4 196.44C174.06 196.02 172.7 196.64 171.52 196.22C169.86 195.66 169.92 193.26 167.52 193.12C165.952 193.304 164.443 193.83 163.1 194.66C162.56 194.88 162.44 194.66 162.3 194.42C162.102 193.067 161.808 191.731 161.42 190.42C160.5 188.84 157.62 190.1 156.68 189.78ZM106.82 247.22L116.26 252.92C115.71 253.439 115.114 253.908 114.48 254.32C112.94 255.14 111.34 254.52 111.32 255.74C102.7 259.04 89.72 274.26 105.9 288.16C126.58 305.9 150.12 312.98 128.22 329.9C122.22 334.6 116.04 333.9 108.9 329.28C101.06 324.14 101.14 301.5 93.62 287.52C81.12 264.26 75.96 272.1 51.8 254.62L106.82 247.22ZM134.6 331.22C134.574 331.22 134.548 331.215 134.523 331.205C134.499 331.194 134.477 331.18 134.459 331.161C134.44 331.143 134.425 331.121 134.415 331.096C134.405 331.072 134.4 331.046 134.4 331.02C134.4 330.994 134.405 330.968 134.415 330.943C134.425 330.919 134.44 330.897 134.459 330.878C134.477 330.86 134.499 330.845 134.523 330.835C134.548 330.825 134.574 330.82 134.6 330.82C134.64 330.833 134.675 330.858 134.7 330.892C134.724 330.927 134.738 330.968 134.738 331.01C134.738 331.052 134.724 331.093 134.7 331.127C134.675 331.161 134.64 331.187 134.6 331.2V331.22ZM124.36 337.22C124.276 337.236 124.19 337.233 124.107 337.211C124.025 337.19 123.948 337.151 123.882 337.096C123.817 337.042 123.764 336.974 123.728 336.896C123.692 336.819 123.673 336.735 123.673 336.65C123.673 336.564 123.692 336.48 123.728 336.403C123.764 336.326 123.817 336.258 123.882 336.203C123.948 336.149 124.025 336.11 124.107 336.088C124.19 336.067 124.276 336.064 124.36 336.08C124.522 336.08 124.677 336.144 124.791 336.258C124.906 336.373 124.97 336.528 124.97 336.69C124.97 336.852 124.906 337.007 124.791 337.121C124.677 337.235 124.522 337.3 124.36 337.3V337.22ZM98.6 335.82C98.8049 335.226 99.1092 334.671 99.5 334.18C98.6 332.94 98.06 332.32 99.62 332.4C100.077 332.433 100.528 332.528 100.96 332.68C102.56 330.92 102.84 331.04 102.78 333.44C103.18 333.64 104.12 334.12 104.3 334.52C104.48 334.92 103.46 335.16 102.74 335.38C102.74 335.86 102.56 337.38 102.1 337.38C101.64 337.38 101.38 336.64 100.78 335.88C99.96 336.1 98.5 336.62 98.6 335.9V335.82ZM98.34 310.34C98.2562 310.356 98.17 310.353 98.0875 310.331C98.0049 310.31 97.9281 310.271 97.8625 310.216C97.7969 310.162 97.7441 310.094 97.7078 310.016C97.6716 309.939 97.6528 309.855 97.6528 309.77C97.6528 309.685 97.6716 309.6 97.7078 309.523C97.7441 309.446 97.7969 309.378 97.8625 309.323C97.9281 309.269 98.0049 309.23 98.0875 309.208C98.17 309.187 98.2562 309.184 98.34 309.2C98.5018 309.2 98.6569 309.264 98.7713 309.378C98.8857 309.493 98.95 309.648 98.95 309.81C98.95 309.972 98.8857 310.127 98.7713 310.241C98.6569 310.355 98.5018 310.42 98.34 310.42V310.34ZM74.18 281.34C74.0962 281.356 74.01 281.353 73.9275 281.331C73.8449 281.31 73.7681 281.271 73.7025 281.216C73.6369 281.162 73.5841 281.094 73.5478 281.016C73.5116 280.939 73.4928 280.855 73.4928 280.77C73.4928 280.685 73.5116 280.6 73.5478 280.523C73.5841 280.446 73.6369 280.378 73.7025 280.323C73.7681 280.269 73.8449 280.23 73.9275 280.208C74.01 280.187 74.0962 280.184 74.18 280.2C74.2638 280.184 74.35 280.187 74.4325 280.208C74.5151 280.23 74.5919 280.269 74.6575 280.323C74.7231 280.378 74.7759 280.446 74.8122 280.523C74.8484 280.6 74.8672 280.685 74.8672 280.77C74.8672 280.855 74.8484 280.939 74.8122 281.016C74.7759 281.094 74.7231 281.162 74.6575 281.216C74.5919 281.271 74.5151 281.31 74.4325 281.331C74.35 281.353 74.2638 281.356 74.18 281.34V281.34ZM66.18 268.86C66.0962 268.876 66.01 268.873 65.9275 268.851C65.8449 268.83 65.7681 268.791 65.7025 268.736C65.6369 268.682 65.5841 268.614 65.5478 268.536C65.5116 268.459 65.4928 268.375 65.4928 268.29C65.4928 268.205 65.5116 268.12 65.5478 268.043C65.5841 267.966 65.6369 267.898 65.7025 267.843C65.7681 267.789 65.8449 267.75 65.9275 267.728C66.01 267.707 66.0962 267.704 66.18 267.72C66.2626 267.7 66.3485 267.699 66.4316 267.717C66.5147 267.734 66.5929 267.769 66.6609 267.82C66.7288 267.871 66.7847 267.937 66.8246 268.011C66.8645 268.086 66.8876 268.169 66.892 268.254C66.8965 268.339 66.8823 268.423 66.8504 268.502C66.8186 268.581 66.7698 268.651 66.7076 268.709C66.6455 268.767 66.5713 268.81 66.4905 268.836C66.4097 268.862 66.3242 268.87 66.24 268.86H66.18ZM42.72 264.86C42.8038 264.844 42.89 264.847 42.9725 264.868C43.0551 264.89 43.1319 264.929 43.1975 264.983C43.2631 265.038 43.3159 265.106 43.3522 265.183C43.3884 265.26 43.4072 265.344 43.4072 265.43C43.4072 265.515 43.3884 265.599 43.3522 265.676C43.3159 265.754 43.2631 265.822 43.1975 265.876C43.1319 265.931 43.0551 265.97 42.9725 265.991C42.89 266.013 42.8038 266.016 42.72 266C42.6358 266.01 42.5503 266.002 42.4695 265.976C42.3887 265.95 42.3145 265.907 42.2524 265.849C42.1902 265.791 42.1414 265.721 42.1096 265.642C42.0777 265.563 42.0635 265.479 42.068 265.394C42.0724 265.309 42.0955 265.226 42.1354 265.151C42.1753 265.077 42.2312 265.011 42.2991 264.96C42.3671 264.909 42.4453 264.874 42.5284 264.857C42.6115 264.839 42.6974 264.84 42.78 264.86H42.72ZM29.54 224.86C30.3671 224.194 31.3094 223.686 32.32 223.36C32.32 220.76 32.12 219.36 34.18 220.9C34.7817 221.39 35.3192 221.955 35.78 222.58C36.7084 222.299 37.6704 222.144 38.64 222.12C38.92 222.12 39.1 222.28 39.08 222.56C38.7383 223.592 38.2243 224.559 37.56 225.42C38.137 226.317 38.4933 227.338 38.6 228.4C38.42 229.38 36.88 228.52 35.64 228.16C35.1 228.8 33.44 230.92 32.82 230.44C32.2 229.96 32.54 228.72 32.46 227.04C31.24 226.6 28.76 225.8 29.6 224.86H29.54ZM22.18 242.5C22.2638 242.484 22.35 242.487 22.4325 242.508C22.5151 242.53 22.5919 242.569 22.6575 242.623C22.7231 242.678 22.7759 242.746 22.8122 242.823C22.8484 242.9 22.8672 242.985 22.8672 243.07C22.8672 243.155 22.8484 243.239 22.8122 243.316C22.7759 243.394 22.7231 243.462 22.6575 243.516C22.5919 243.571 22.5151 243.61 22.4325 243.631C22.35 243.653 22.2638 243.656 22.18 243.64C22.0958 243.65 22.0103 243.642 21.9295 243.616C21.8487 243.59 21.7745 243.547 21.7124 243.489C21.6502 243.431 21.6014 243.361 21.5696 243.282C21.5377 243.203 21.5235 243.119 21.528 243.034C21.5324 242.949 21.5555 242.866 21.5954 242.791C21.6353 242.717 21.6912 242.651 21.7591 242.6C21.827 242.549 21.9053 242.514 21.9884 242.497C22.0715 242.479 22.1574 242.48 22.24 242.5H22.18ZM215.08 308.92C207.76 318.46 98.46 371.5 87.82 376.64C62.84 346.98 23.96 292.9 1.16 261.34L21.76 258.64C34.6 278.9 54.28 274.2 64.84 280.64C76.72 287.9 82.84 293.38 86.44 307.46C91.34 326.6 85.16 334.86 99.48 340.96C113.2 346.78 140.44 344.44 151.48 325.5C162.52 306.56 140.9 298.28 121.48 289.5C102.06 280.72 105.48 268.56 108.12 265.12C110.136 262.502 112.474 260.15 115.08 258.12C116.065 258.123 117.034 257.868 117.891 257.38C118.747 256.893 119.46 256.189 119.96 255.34C122.3 256.6 211.06 306.62 215.14 308.92H215.08ZM141.08 332.5C141.106 332.5 141.132 332.505 141.157 332.515C141.181 332.525 141.203 332.54 141.221 332.558C141.24 332.577 141.255 332.599 141.265 332.623C141.275 332.647 141.28 332.674 141.28 332.7C141.28 332.726 141.275 332.752 141.265 332.776C141.255 332.801 141.24 332.823 141.221 332.841C141.203 332.86 141.181 332.875 141.157 332.885C141.132 332.895 141.106 332.9 141.08 332.9C141.054 332.898 141.028 332.892 141.004 332.881C140.98 332.869 140.959 332.854 140.941 332.834C140.924 332.815 140.91 332.792 140.901 332.767C140.893 332.742 140.889 332.716 140.89 332.69C140.891 332.663 140.898 332.638 140.909 332.614C140.92 332.59 140.936 332.569 140.956 332.551C140.975 332.534 140.998 332.52 141.023 332.511C141.047 332.502 141.074 332.498 141.1 332.5H141.08ZM146.2 312.24C145.96 312.4 145.6 312.24 145.04 311.96C144.16 312.94 143.74 313.22 143.84 311.56C142.98 311.28 142.5 311.14 143.3 310.68C143.54 310.549 143.795 310.448 144.06 310.38C144.28 309 144.46 308.98 145.22 310.14C145.588 310.049 145.972 310.049 146.34 310.14C146.62 310.3 146.16 310.68 145.84 311.06C145.96 311.34 146.44 312.1 146.22 312.24H146.2ZM116.68 256.92C115.908 257.174 115.081 257.206 114.292 257.012C113.503 256.817 112.785 256.404 112.22 255.82H112.4C116.18 255.24 115.62 253.68 117.58 252.72C117.76 252.92 117.58 252.86 120.76 253.1C119.957 254.861 118.491 256.234 116.68 256.92V256.92ZM121.3 248.92C121.011 249.458 120.899 250.074 120.98 250.68C120.98 250.82 120.84 251.46 120.76 252.06L118.6 251.88C118.6 251.78 120.02 248.4 120.12 248.08H121.48L121.3 248.92ZM120.9 243.3C119.52 245.88 118.9 250.68 117.68 249.84C117.254 249.399 117.011 248.813 117 248.2C116.936 247.046 117.099 245.891 117.48 244.8C117.806 243.655 118.38 242.595 119.161 241.697C119.942 240.798 120.911 240.082 122 239.6C120.94 243.68 121.24 242.76 120.9 243.38V243.3ZM122.34 246.32C122.66 245.38 123.1 244 123.72 242.2C123.98 242.06 124.04 242.2 124.38 243.04C124.92 244.44 121.76 248 121.76 248C121.96 247.42 122.18 246.86 122.34 246.4V246.32ZM178.82 211.66C171.76 222.28 166.52 227.04 158.28 231.66C150.247 235.933 141.706 239.172 132.86 241.3C129.3 242.4 126.32 250.3 122.42 250.66C121.98 250.66 121.68 250.66 122.04 249.66C122.94 247.16 126.2 245.08 125.26 242.7C125.141 242.342 124.98 242 124.78 241.68C124.618 241.418 124.371 241.221 124.08 241.12C124.2 240.72 124.6 239.56 125.14 237.92C125.6 237.6 125.92 237.5 128.02 236.26C135.06 232.1 137.82 224.64 143.74 217.66C146.867 213.835 150.516 210.469 154.58 207.66C154.88 207.48 154.38 207.78 156.7 200.46C158.04 196.24 159.6 191.78 160.06 190.46C160.147 190.472 160.229 190.503 160.302 190.552C160.375 190.6 160.436 190.664 160.48 190.74C161 191.72 160.9 193.6 161.34 194.74C162.38 197.26 164.96 193.88 167.34 193.94C169.34 193.94 169.34 196.24 171.34 196.82C172.84 197.26 174.34 196.34 175.74 197C177.574 200.119 179.733 203.035 182.18 205.7C181.271 207.824 180.145 209.848 178.82 211.74V211.66ZM191.1 212.3C185.046 207.972 179.986 202.401 176.26 195.96C173.8 191.68 171.52 186.9 170.74 174.9C171.212 174.817 171.679 174.711 172.14 174.58L172.56 178.58C174.763 180.247 177.09 181.745 179.52 183.06C179.52 183.06 177.82 192.68 185.52 205.06C189.22 211.14 191.1 212.38 191.1 212.38V212.3ZM228.28 238.1C228.64 242.46 224.68 266.26 224.14 269.5C224.108 269.512 224.079 269.531 224.055 269.555C224.031 269.579 224.012 269.608 224 269.64C224.26 268.66 219.76 283.8 219.42 288.54C219.42 288.92 219.42 288.74 222.84 291.7C224 292.72 227.98 296.1 228.18 297.28C228.272 297.586 228.272 297.913 228.18 298.22C226.394 296.327 224.262 294.793 221.9 293.7C221.858 293.673 221.806 293.665 221.758 293.676C221.709 293.687 221.667 293.717 221.64 293.76C221.613 293.802 221.605 293.853 221.616 293.902C221.627 293.951 221.658 293.993 221.7 294.02L223.32 295.34C224.94 296.44 226.43 297.722 227.76 299.16C227.56 299.66 227.12 299.7 226.6 299.56C226.6 298.52 222.04 296 220.6 295.14C220.38 295.02 220.18 295.34 220.4 295.46C222.409 296.62 224.28 298.002 225.98 299.58C225.34 301.02 223.4 298.96 216.34 296.06C215.068 295.488 213.721 295.097 212.34 294.9C212.246 294.893 212.153 294.917 212.074 294.968C211.995 295.018 211.934 295.092 211.9 295.18C211.72 295.7 212.28 295.68 214.08 297.5C214.463 297.835 214.793 298.226 215.06 298.66C213.862 298.801 212.651 298.518 211.64 297.86C210.839 297.324 210.206 296.571 209.817 295.689C209.427 294.808 209.296 293.833 209.44 292.88C209.78 290.88 211.76 289.86 210.94 288.08C210.12 286.3 208.44 274.74 208.2 273.08C205.98 258.06 206.82 257.74 206.4 257.62C206.4 236.78 207.06 236.7 206.9 235.62C206.9 235.4 202.42 204.64 202.38 204.4C203.7 204.4 204.64 205.86 205.38 207.06C206.46 208.78 207.38 209.9 209.54 209.24C211.7 208.58 213.54 206.76 215.54 206.04C217.54 205.32 218.6 206.04 220.78 206.74C221.62 207.141 222.569 207.254 223.479 207.063C224.39 206.871 225.213 206.385 225.82 205.68C229.3 202.78 227.66 202.06 234.78 204.86C233.4 210.24 230.3 225.44 230.24 225.68C228.976 229.7 228.316 233.886 228.28 238.1V238.1ZM202.14 203.42C200.571 203.986 199.041 204.654 197.56 205.42C197.22 205.42 197.08 205.42 196.98 205.02C196.36 202.16 203.64 168.3 221.78 167.02C230.06 166.46 235.78 181.32 238.28 189.24C239.924 194.274 241.201 199.421 242.1 204.64C242.46 208.26 231.9 201.48 228.86 202.18C227.66 202.46 227.12 203.48 225.4 204.92C223.68 206.36 222.8 206.36 221.28 205.82C219.484 204.836 217.38 204.579 215.4 205.1C213.28 205.86 211.52 207.64 209.4 208.3C207.6 208.88 207.04 207.64 206.02 206.04C205 204.44 203.96 203.08 202.14 203.34V203.42ZM231.94 222.3C232.78 218.98 234.26 212.1 235.36 204.9C237.2 205.62 241.22 207.38 242.56 206.1C242.759 205.886 242.904 205.626 242.98 205.344C243.057 205.062 243.064 204.765 243 204.48C242.275 200.258 241.273 196.089 240 192C237.32 183.1 231.06 166 221.74 166.58C202.82 167.9 195.44 202.04 196.08 205.12C196.099 205.318 196.162 205.509 196.266 205.678C196.37 205.848 196.512 205.991 196.68 206.097C196.848 206.204 197.038 206.27 197.236 206.291C197.433 206.312 197.633 206.288 197.82 206.22C198.96 205.94 200.58 204.7 202.06 204.36C202.28 208 202.7 212.84 203.58 219.1C200.206 217.772 196.948 216.167 193.84 214.3C187.565 208.205 183.142 200.461 181.08 191.96C180.377 189.178 179.975 186.328 179.88 183.46C183.512 185.488 187.281 187.259 191.16 188.76C191.224 188.785 191.294 188.795 191.363 188.788C191.432 188.782 191.498 188.759 191.556 188.722C191.615 188.685 191.664 188.635 191.699 188.575C191.735 188.516 191.755 188.449 191.76 188.38C192.491 182.73 194.886 177.425 198.64 173.14C202.465 168.902 207.546 166 213.14 164.86C213.23 164.845 213.314 164.802 213.379 164.738C213.444 164.673 213.487 164.59 213.502 164.5C213.518 164.409 213.505 164.317 213.465 164.234C213.425 164.152 213.36 164.084 213.28 164.04C209.318 161.754 205.232 159.69 201.04 157.86C198.443 156.653 195.72 155.741 192.92 155.14C193.462 153.648 193.825 152.097 194 150.52C198 148.82 218.18 151.32 231.78 149.9C233.84 149.772 235.883 149.444 237.88 148.92C250.14 148.58 268.6 163.66 272 170.46C275.4 177.26 274.86 185.76 267.32 196.34C260.22 206.24 234.7 220.68 231.96 222.22L231.94 222.3ZM286.36 262.68C289.14 253.92 284.74 245.72 283.16 243.18L296.4 242.82C298.104 243.828 299.405 245.398 300.08 247.26C301.165 250.048 301.741 253.008 301.78 256C297.82 257.78 290.48 261.14 286.36 262.6V262.68ZM302.64 255.46C302.53 252.53 301.851 249.65 300.64 246.98C299.838 245.096 298.43 243.533 296.64 242.54C297.438 241.683 298.405 241.002 299.48 240.54C299.48 241.18 298.7 242.54 299.64 242.68C300.58 242.82 300.68 241.9 301.26 241.6C301.5 241.48 301.98 241.46 301.78 241.98C301.58 242.5 301.14 243.28 301.6 243.98C301.939 244.378 302.405 244.647 302.92 244.74C303.04 244.74 302.24 245.3 302.02 245.94C301.968 246.091 301.976 246.257 302.043 246.402C302.11 246.548 302.231 246.661 302.38 246.72C303.06 246.98 304.24 246.3 304.98 247.04C305.28 247.36 305.12 247.66 304.74 247.88C303.82 248.46 303.7 249.14 304.56 249.88C304.992 250.18 305.376 250.545 305.7 250.96C305.072 250.955 304.46 251.159 303.96 251.54C303.865 251.613 303.787 251.706 303.734 251.814C303.681 251.921 303.653 252.04 303.653 252.16C303.653 252.28 303.681 252.398 303.734 252.506C303.787 252.613 303.865 252.707 303.96 252.78C304.4 253.16 305.48 253.56 305.72 253.9C304.767 254.534 303.731 255.032 302.64 255.38V255.46ZM326.9 241.62C326.08 244.96 308.08 253.02 306.8 253.62C306.58 252.84 305.32 252.46 304.8 252.08C305.36 251.78 306.48 251.9 306.7 251.2C306.92 250.5 305.36 249.34 305 248.88C305.34 248.56 306.56 247.98 306.02 246.88C305.774 246.466 305.404 246.141 304.962 245.95C304.52 245.76 304.029 245.714 303.56 245.82H303.26C303.7 245.26 304.42 244.54 303.76 244.06C303.1 243.58 302.66 244.06 302.32 243.4C304.22 243.64 305.78 243.9 306.98 244.16C307.02 244.166 307.061 244.163 307.099 244.151C307.138 244.14 307.174 244.12 307.204 244.093C307.235 244.067 307.259 244.034 307.276 243.997C307.292 243.96 307.3 243.92 307.3 243.88C307.3 244.68 306.74 239.26 309.58 238.62C310.848 238.486 312.13 238.666 313.312 239.144C314.494 239.621 315.541 240.382 316.36 241.36C316.407 241.418 316.469 241.462 316.54 241.487C316.611 241.512 316.687 241.516 316.76 241.5C317.5 241.36 323.64 240.1 326.1 241C326.38 240.98 326.96 241.26 326.9 241.54V241.62Z" fill="black"/>
</svg>
