<svg width="382" height="350" viewBox="0 0 382 350" fill="none" xmlns="http://www.w3.org/2000/svg">
<path d="M345 232.12C359.94 220.68 359.44 199.64 359 198.96C364.74 192.96 364.9 175.56 363.24 171.98C361 167.12 371 124.28 354.68 112.34C356.12 111.7 358.86 110.06 359.06 107.92C359.42 103.7 355.44 103.02 352.4 101.22C339.7 93.7601 338.9 77.2201 314.02 71.1001C313.1 69.4001 312.9 69.1001 312.16 67.8601C330.16 69.1001 327.84 59.2401 324.74 56.8001C322.788 55.6716 320.697 54.8042 318.52 54.2201C326.1 51.0401 325.88 41.5001 316.12 42.3801C314.96 42.4801 318.72 39.4001 315.66 35.4601C314.972 34.3974 314.001 33.5478 312.856 33.0072C311.711 32.4666 310.438 32.2563 309.18 32.4001C309.18 25.7001 305.96 22.9801 302.14 22.9801C307.76 14.7401 300.26 5.56009 289.74 10.6601C292.24 4.86009 285.58 -5.57991 270.32 6.52009C269.36 2.32009 256.08 -2.05991 254.64 4.08009C253.9 7.22009 248.64 -1.55991 239.04 5.64009C236.42 7.64009 235.04 10.9401 238.12 11.9801C228.58 12.6801 224.92 21.5601 232.32 23.4801C233.92 23.9001 229.28 24.9801 230.02 30.9401C230.58 35.5001 234.62 38.1201 237.92 35.6201C239.02 34.8001 238.7 34.6201 238.6 35.4801C238.573 35.8176 238.614 36.1571 238.721 36.4783C238.828 36.7996 238.998 37.096 239.222 37.3499C239.446 37.6037 239.719 37.8099 240.024 37.9559C240.33 38.102 240.662 38.1851 241 38.2001C241.302 39.9519 241.764 41.6724 242.38 43.3401C235.14 43.3401 230.84 49.5801 232.76 52.6201C234.98 56.1001 238.88 53.7801 234 56.3001C224.54 61.2001 226.92 69.3201 232.72 69.2601C238.52 69.2001 234.72 67.0601 235.62 72.8601C236.18 76.6801 242.38 80.4201 247.62 75.6201C249.1 77.4001 249.4 78.5401 251.2 79.4601C236.18 89.4601 241.42 94.3201 221.94 113.96C219.68 116.26 219.02 115.4 217.94 116.46C216.86 117.52 218.34 123.88 223.94 123.42C217.8 141.42 223.94 135.88 215.06 136.82C214.86 136.82 217.4 110.56 217.06 106.94C216.86 105.16 216.5 105.2 196.42 109.78C197.08 96.3801 196.94 68.6801 195.78 68.4001C195.58 68.4001 181.12 68.4001 181.12 68.0201C180.8 66.7401 181.74 61.2401 181.48 60.2001C181.24 59.5201 180.44 59.5401 179.8 59.1201C172.04 53.9601 181.8 56.7801 182.54 56.0201C183.62 54.8201 182.54 42.7201 184.54 42.7201C186.54 43.7801 184.94 53.9001 185.7 54.8601C188.16 57.0201 186.48 45.6001 189.14 45.9201C190.6 46.2001 188.94 54.4401 189.5 55.8001C191.32 58.4001 190.68 51.8001 192.84 49.6601C195.36 48.4401 192.72 67.6601 192.44 68.0601C193.46 68.8601 197.94 44.7401 192.06 48.5401C190.34 49.6601 192.06 48.0601 190.8 45.4001C190.1 44.0201 188.1 43.8001 186.98 45.7601C185.92 38.7601 182.42 40.4601 181.88 45.3801C181.36 54.6601 181.58 53.2601 181.42 54.9201C176.12 52.9201 172.16 57.6201 179.94 60.3201C181.16 60.7401 179.94 65.1801 180.32 67.7201C180.32 68.1401 180.54 68.0001 179.5 67.9001C175.22 67.4601 162.42 104.08 158.48 109.34C163.94 117.34 162.12 118.52 161.62 117.2C156.2 106 133.62 82.5401 108.52 74.0601C106.52 73.4201 107 74.0601 106.52 71.4601C105.06 69.3201 126.4 80.3001 124.52 48.1001C133.54 48.4001 132.22 34.2801 124.68 33.8801C129.66 27.7801 128.1 22.7601 123.08 17.4201C120.86 1.42009 103.66 1.06009 88.3599 6.90009C84.7399 8.28009 84.0999 10.4401 82.2399 13.6401C80.4399 13.9201 79.6199 12.6201 76.1399 14.6201C65.5599 20.7201 68.1399 37.9601 76.8999 44.9201C75.3199 49.5001 76.6999 54.5801 82.6599 54.1601C82.6599 73.3201 84.3999 68.8801 75.2799 70.4601C10.2799 81.7201 -7.8801 160.52 20.2999 186.68C21.8599 188.14 15.0199 197.92 27.2199 204.86C27.6108 213.744 29.7303 222.467 33.4599 230.54C36.2399 236.54 36.3399 235.24 36.0599 236.12C24.1799 273.92 1.5399 341.4 1.1799 343C-0.1201 348.78 5.5599 350.46 8.1799 346.02C9.3399 344.02 41.3599 257.42 45.4799 246.14C47.3447 247.623 49.2875 249.005 51.2999 250.28C50.4399 265.66 45.5199 332.28 46.3999 336.12C46.5643 337.054 47.0358 337.907 47.7398 338.543C48.4438 339.179 49.3399 339.562 50.2861 339.631C51.2323 339.7 52.1744 339.451 52.9631 338.924C53.7518 338.396 54.3419 337.621 54.6399 336.72C54.9399 335.72 61.3399 291.7 65.2199 257.26C88.2199 266.64 114.28 267.78 118.98 267.84C122.98 347.66 122.38 342.86 130.82 340.42C132.3 339.98 132.34 340.42 132.58 330.96C136.58 334.4 154.18 348.22 159.52 349.26C161.12 349.56 162.6 346.36 160.5 342.66C148.3 321.2 146.96 331.1 158.18 316.92C159.44 319.98 164.32 332.42 166.18 332.72C170.88 333.24 169.08 343.46 171.96 343.56C177.08 343.76 203.62 341.92 205.7 338.98C206.58 337.76 204.68 335.14 202.24 334.04C175.76 324.38 186.54 342.38 184.52 285.68C184.52 284.24 195.94 271.02 201.38 254.22C204.4 244.88 201.38 240.84 202.88 236.22C206.18 225.32 200.34 227.6 212.36 226.98C214.92 231.94 216.82 228.98 218.22 234.98C219.639 241.404 222.605 247.383 226.86 252.4C227.64 243.243 229.658 234.234 232.86 225.62C234.86 225.44 232.6 223.5 228.04 253.62C228.22 253.82 227.46 308.5 229.84 309.62C231.711 310.22 233.656 310.556 235.62 310.62C235.14 311 235.46 324.18 235.24 324.18C235.24 324.68 219.04 329.94 217.24 338.08C217 339.86 216.96 340.6 218.82 340.6C225 340.26 245.78 335.08 247.14 335.08C247.14 337.3 246.8 337.48 248.9 337.46C250.68 337.46 252.9 337.46 253.48 336.64C254.02 335.3 252.78 313.84 253.1 311.34C253.1 311.14 252.76 311.34 257.64 311.34C257.84 339.88 258.06 337.18 260.06 337.76C268.6 339.22 267.04 341.1 270.06 291.06C277.78 298.06 274.34 298.14 284.06 291.9C285.38 293.56 292.06 301.46 292.06 301.52C288.86 307.76 283.3 319.76 288.18 324.98C289.56 326.16 291.18 324 304.92 305.86C310.32 298.7 307.5 305.5 310.72 302.74C316.54 297.76 314.72 300.74 298.72 282.14C308.1 275.36 307.08 277.28 299.66 270.28C259.22 232.02 273.82 258.5 325.04 241.56C326.28 254.44 335.68 334.3 337.58 335.68C338.88 336.62 343.18 336.08 344.52 335.48C346.82 334.44 343.96 305.8 339.76 253.92C356.66 300.08 373.54 344.24 373.54 344.44C375.78 349.18 381.36 348.24 381.06 343.54C381 343.62 350.74 250.64 345 232.12V232.12ZM309.6 301.68C308.66 300.7 308.44 299.96 307.6 300.24C306.02 301.04 291.04 322.24 288.88 323.6C284.44 317.04 293.62 302.16 293.16 301.24C292.88 300.86 298.8 299.24 305.48 291.58C313.12 300.42 313 298.88 309.58 301.68H309.6ZM304.66 290.52C301.366 294.668 297.289 298.127 292.66 300.7C286.66 294.06 285.84 293.08 284.66 291.64C301.12 281.22 295.96 280.32 304.64 290.52H304.66ZM358.42 200.18C358.08 215.56 352.3 225.38 344.66 231.04C337.48 207.9 339.4 214.92 340.42 207.34C360.42 201.96 358.44 197.96 358.4 200.18H358.42ZM361.48 169.3C357.3 164.64 350.86 163.3 344.88 161.92C349.86 159.38 355.72 156.22 357.2 152.26C359.2 145.7 356.14 129.92 354.9 126.08C349.76 109.98 346.4 115.1 352.9 113.04C366.06 121.92 362.84 149.18 361.46 169.3H361.48ZM283.26 169.62C271.62 170.96 277.92 173.74 275.26 175.3C273.38 176.38 272.74 178.64 275.78 179.3C278.02 179.8 277.78 179.3 276.74 179.96C274.5 181.3 273.92 184.54 282.3 183.7C281.34 185.54 276.52 194.8 275.2 196.44C274.72 197.04 241.94 195 220.3 192.44C220.48 192.24 241.52 165.74 246.62 161.2C247.1 160.98 282.62 165.2 282.82 165.2C282.424 166.676 282.573 168.245 283.24 169.62H283.26ZM277.12 182.2C275.62 180.2 285.7 180.66 283.42 178.48C283.22 178.36 263.98 177.42 284.22 175.18C284.404 175.138 284.567 175.031 284.678 174.878C284.789 174.725 284.841 174.537 284.824 174.349C284.807 174.161 284.722 173.985 284.585 173.855C284.448 173.724 284.269 173.648 284.08 173.64C280.48 173.74 278.24 174.4 277.52 173.64C276.34 171.34 283.12 171.36 284.26 170.94C286.26 170.4 282.64 166.94 284.56 164.94C285.56 164.04 288.46 169.78 288.88 170.16C294.7 174.02 317.72 138.58 331.78 137.26C335.26 136.92 325.78 136.5 321.9 140.24C313.9 117.6 314.1 118.4 314.16 117.52C314.42 114.04 318.34 112.56 321.72 113.12C325.1 113.68 325.82 115.88 329.46 115.9C331.322 115.91 333.167 115.545 334.885 114.827C336.603 114.108 338.159 113.052 339.46 111.72C342.034 112.793 344.775 113.409 347.56 113.54C352.08 123.22 353.66 124.16 355.38 135.18C356.28 140.92 358.12 150.64 354.08 154.38C345.58 162.26 288.62 186.14 277.1 182.2H277.12ZM287.78 165.74C291.78 166.26 291.18 165.74 290.4 167.48C289.34 169.7 290.08 169 287.76 165.74H287.78ZM245 60.6401C234.54 57.4001 245.48 45.1201 245 49.0201C245 49.2201 244.42 49.4001 244.26 49.5001C242.26 50.6401 239.74 59.5001 248.62 59.8601C253.42 60.0801 248.1 61.6201 245 60.6401ZM245.48 48.6401C242.48 40.6401 242.36 41.9001 241.7 38.2401C245.7 37.7801 250.02 38.1001 247.42 36.6001C246 35.7801 244.6 36.7401 245.24 36.2001C251.24 30.5001 249.1 24.7801 250.3 27.8801C250.877 29.2508 251.792 30.4533 252.958 31.3757C254.125 32.2982 255.506 32.9106 256.973 33.1561C258.44 33.4016 259.945 33.2721 261.348 32.7798C262.752 32.2874 264.008 31.4482 265 30.3401C266.68 34.8001 268.56 37.1201 273.86 37.6401C277.4 37.9801 276.84 37.5401 278.18 36.2001C283.32 31.0601 288.18 41.2001 281.94 44.2001C279.66 45.0001 282.92 55.2801 289.02 52.6601C293.58 50.6601 292.34 41.2001 287.26 40.8201C285.38 40.6801 286.34 40.2001 286.64 40.1601C293.24 39.2201 296.04 50.6201 290.2 53.8601C284.84 56.8401 278.42 50.6201 280.82 44.4001C276.52 44.9801 276.54 50.6001 278.82 54.3001C279.1 54.7401 269.84 55.1001 270.7 61.8601C271.28 64.7801 274.7 65.4401 277.64 65.3801C271.38 79.9801 279.36 82.0201 286.28 75.0801C286.851 76.9235 287.672 78.6799 288.72 80.3001C291.98 84.4401 256.98 94.7801 258 78.6601C259.973 77.5496 261.846 76.2715 263.6 74.8401C263.862 72.8448 263.814 70.821 263.46 68.8401C262.56 63.6201 253.86 71.0001 245.4 48.6001L245.48 48.6401ZM270.26 117.38C266.26 114.3 260.26 91.2201 259.1 85.6801C274.36 94.6801 288.12 82.8601 287.34 84.5601C285 89.4801 272.62 113.88 270.18 117.34L270.26 117.38ZM271.8 131C264.5 131.82 262.62 122 268.22 119.6C279.14 115.56 282.34 129.78 271.8 131ZM254.28 80.4601C254.28 80.4601 256.08 79.5401 257.3 78.8601C257.1 83.4001 259.24 84.2201 254.28 80.4201V80.4601ZM219.4 120.22C216.68 116.1 220.24 118.56 229.14 108.58C236.08 100.82 243.34 84.1601 252.16 80.5801C252.66 81.0201 255.34 83.1201 257.9 84.9001C259.4 94.6001 264.5 112.9 268.26 117.62C268.44 117.84 259.36 120.76 265.56 130.26C276.44 138.98 285.36 120.26 273.16 117.76C270.3 117.2 271.88 121.08 285.6 90.5201C289.6 81.5201 287.5 84.5201 290.86 82.0001C293.76 83.5801 301.82 84.1201 301.82 75.4801C308.62 81.1001 317.16 78.9601 314.92 72.9601C335.32 78.5001 337.78 90.6401 347.12 99.2001C353.12 104.76 357.96 104.16 357.48 107.72C357.48 109.46 351.68 113.94 342.68 111.42C339.6 110.56 339.26 109.92 338.68 110.64C337.341 112.09 335.675 113.198 333.82 113.873C331.966 114.548 329.977 114.77 328.02 114.52C326.32 114.08 325.36 113.06 322.96 112.2C319.7 111.26 314.96 112.2 313.5 115.6C308.78 96.6001 310.08 94.0801 309 93.0001C304.8 97.2801 318.78 135.44 320.68 141.24C317.28 143.24 308.48 151.98 305.7 154.76C305 155.46 290.46 152.14 242.16 151.9C246.32 143.6 253.26 138.32 253.62 137.32C253.74 136.66 245.48 128.36 247 119.2C249.3 105.2 255.3 97.4801 252.76 99.7801C247.96 107.26 244.22 115.64 246.08 124.48C245.223 125.096 244.232 125.499 243.189 125.655C242.145 125.812 241.08 125.718 240.08 125.38C236.08 123.88 235.12 117.8 224.48 122.18C223.535 122.44 222.531 122.39 221.617 122.037C220.703 121.684 219.925 121.047 219.4 120.22V120.22ZM225.18 123.3C228.82 122.68 231.62 121.3 234.04 122.8C236.04 124.04 239.84 129.76 246.24 126.16C248 128.74 247.38 132.64 251.82 137.12C233.12 155.6 244.48 160.88 212.74 160.42C213.22 155.52 214.32 143.8 214.86 137.5C224.66 136.34 218.32 142.88 225.18 123.3V123.3ZM215.38 107.48C215.38 116.64 211.2 161.14 210.18 170.24C200.72 173.4 138.6 190.86 117.06 194.24C117.5 181.3 121.3 143.14 124.78 130.66C135.5 125.38 205 109 215.38 107.48V107.48ZM73.3799 174.1C79.3799 170.1 109.5 163.52 118.72 161.4C118.72 161.88 118.38 164.32 118.32 164.8C70.0599 174.66 79.7199 176.84 73.4399 174.1H73.3799ZM127.38 84.2801C115.98 110.78 115.38 102.96 125.6 106.14C126.66 106.48 110.92 139.74 110.86 140.84C108.44 188.64 109.38 130.6 114.1 82.8401C114.76 76.2601 112.12 75.0001 127.4 84.2801H127.38ZM114.42 153.52C114.42 153.732 114.336 153.936 114.186 154.086C114.036 154.236 113.832 154.32 113.62 154.32C113.408 154.32 113.204 154.236 113.054 154.086C112.904 153.936 112.82 153.732 112.82 153.52C112.8 149 114.42 146.64 114.42 153.52ZM107 74.2801C116.14 77.4201 113.98 74.7001 112.56 89.3401C112.56 88.9201 110.7 87.8201 106.42 83.4601C108.34 81.7201 107.5 76.8201 107 74.2801ZM107.24 94.6001C108.6 94.2601 108.8 90.6001 108.92 88.0801C113.44 92.2801 112.48 89.1601 111.48 100.94C108.8 93.9201 108.82 94.3401 108.46 94.1801C107.96 95.1801 105.3 96.4201 103.92 95.3201C103.78 96.7401 104.54 113.12 104.66 117.74C71.9599 60.3601 93.4399 103.24 99.7399 91.6401C105.56 95.2801 103.5 95.5401 107.28 94.6001H107.24ZM124.74 35.0001C130.74 34.8801 131.66 46.2801 125 46.5401C118.34 46.8001 118.18 35.1201 124.74 35.0001V35.0001ZM119 27.2201C119.48 28.8001 120.36 32.0201 121 34.9601C117.82 37.6201 119.8 39.7601 117.44 40.1201C117 39.0001 117 38.3601 116.4 39.0001C116.4 40.6601 116.94 40.2001 114.7 40.6201C110.92 41.3001 113.74 40.9001 111.44 38.2601C110.625 37.2364 109.545 36.4562 108.318 36.0045C107.09 35.5528 105.762 35.4471 104.478 35.6989C103.195 35.9507 102.005 36.5503 101.039 37.4322C100.073 38.3142 99.3673 39.4446 98.9999 40.7001C97.2599 40.7001 91.8799 40.5001 90.9999 40.3601C89.7999 36.8201 87.6399 24.2001 87.6199 24.0401C102.6 33.3201 115.18 30.4601 119 27.2201ZM111.8 45.2201C110.56 48.9401 102.62 50.2801 100.62 44.3201C97.4399 35.0001 115.62 33.5801 111.76 45.2201H111.8ZM79.3799 52.6401C76.7799 51.3001 76.1199 43.2401 80.6799 42.6401C83.6399 42.2801 85.2199 45.5601 86.3999 46.1001C89.4399 47.4601 91.3199 45.5601 91.3199 42.2001H98.7599C98.3399 52.6001 114.76 52.2001 113.02 42.3801C118.02 42.1601 115.76 38.9601 118.2 49.7801C116.6 50.5601 113.88 50.9201 113.76 51.3601C114.32 52.2401 119.76 51.7401 119.76 49.6201C119.14 46.0001 118.68 43.8201 118.36 42.6201C118.719 43.7391 119.307 44.7717 120.084 45.6528C120.862 46.5339 121.814 47.2446 122.88 47.7401C123 49.2801 123.02 50.4401 123.06 52.4801C123.68 76.9201 105.06 67.6401 104.82 70.4801C104.82 71.4801 107.2 80.4801 105.52 82.0601C100.56 80.8601 84.5599 70.6801 84.0599 69.3601C84.0399 46.3801 83.9999 55.0001 79.3799 52.6401ZM102.22 82.6401C100.752 86.2625 99.0068 89.7662 96.9999 93.1201C83.6999 84.2201 82.1799 79.0001 77.6199 71.0001C88.3599 69.1601 77.5999 71.1801 102.22 82.6601V82.6401ZM76.2199 71.6001C113.58 135.6 109.76 124.42 109.04 134.8C104.12 131.76 77.6199 115.08 74.3599 112.44C75.1399 110.12 82.9799 102.96 83.4199 101.64C83.8599 100.32 59.6399 76.2401 59.7199 76.2201C65.0554 74.2527 70.5395 72.7145 76.1199 71.6201L76.2199 71.6001ZM47.3599 161.6C50.6199 162.38 49.8599 162.92 50.5599 161.78C59.2199 147.78 63.1599 121.54 63.5399 121.22C64.6999 122.64 61.7399 146.34 51.8199 161.22C49.9399 164.04 49.9199 161.22 55.3799 167.64C70.9999 163.82 98.0199 161 119.12 158.78C119.12 159.3 118.96 160.14 118.9 160.78C105.2 163.52 62.7199 170.38 71.5199 178.94C74.2799 181.28 114.92 196.94 116.9 194.94C137.52 192.3 206.1 173.72 211.14 171.62C211.68 171.26 211.62 172.1 212.62 161.84C224.46 162.24 228.62 163.84 236.04 158.42C238.193 156.863 240.13 155.027 241.8 152.96C261.5 153.2 284.86 153.98 304.5 156.2C284.78 176.38 296.1 165.52 290.9 164.82C282.16 163.62 246.28 160.32 246.5 160.66C245.94 159.88 220.02 189.72 218.5 192.48C216.98 195.24 274.86 199.08 276.1 197.78C277.34 196.48 283.04 185.54 284.1 183.6C294.26 182.28 308.1 180.36 343 162.98C373.2 170.54 363.66 184.6 349 190.1C343.88 192.1 294.74 206.3 228.52 211.24C107.44 220.26 34.7399 195.24 38.6599 195.24C39.6399 195.24 40.0799 193.96 41.7799 190.8C50.3399 198.34 72.0599 204.98 66.6799 198.02C67.7939 198.185 68.9259 198.185 70.0399 198.02C72.1599 197.54 72.2999 195.52 70.5999 194.02C69.7399 193.28 69.6199 193.52 70.3799 193.46C73.6999 193.22 73.8999 190.64 71.3199 189.18C67.8399 187.18 61.7199 187.4 59.9599 184.2C58.6799 181.88 63.2399 179.54 61.6599 177C60.5599 175.24 58.7999 175.96 57.0799 177.12C53.5999 179.54 54.8599 179.74 52.3599 177.44C56.9199 174.26 58.3599 175.82 57.6199 173.56C56.7642 171.062 55.3283 168.802 53.4301 166.967C51.5318 165.131 49.2253 163.772 46.6999 163C30.0799 159.6 24.1999 171 23.6799 171C22.5599 167.98 32.6799 158.16 47.2599 161.56L47.3599 161.6ZM59.5999 185.92C61.9799 188.9 71.7799 189.46 71.5999 191.62C70.7599 193.9 59.6999 188.34 60.1999 191.28C60.5199 192.16 61.1599 191.7 65.0799 193.06C72.7799 195.76 72.3599 198.56 60.7599 194.64C58.6199 193.92 58.3199 194.64 58.6599 195.42C58.9999 196.2 66.1799 197.74 65.7799 199.42C65.3599 200.72 48.5599 195.82 42.1799 190.16C44.5125 185.435 47.8182 181.257 51.8799 177.9C53.4999 179.48 54.1799 180.2 54.5799 180.06C54.9799 179.92 60.7399 174.88 60.9599 178.06C60.9999 180.22 56.3799 182 59.4999 185.88L59.5999 185.92ZM28.0799 205.32C45.6999 215.06 46.3199 203.74 36.6599 234.54C31.5202 225.599 28.5474 215.578 27.9799 205.28L28.0799 205.32ZM6.6599 345.46C5.9399 346.86 2.6599 347.92 3.4999 343.46C7.1599 324.54 32.3599 257.46 44.0199 211.74C48.4199 213.12 51.3799 213.94 55.7999 215.08C52.4999 224.26 7.4799 344.2 6.6599 345.46V345.46ZM53.8199 332.36C52.9199 338.36 48.2999 338.7 47.8199 332.24C47.2599 323.66 50.0999 301.2 52.0199 250.78C55.9518 253.158 60.0567 255.237 64.2999 257C63.5199 263.1 56.4599 314.82 53.8199 332.36V332.36ZM130.58 338.84C123.7 341.48 125.1 344.04 120.08 267.84C121.02 267.84 126.74 267.94 131.82 267.5C131.24 304.08 131.36 333.8 130.58 338.84V338.84ZM45.8799 245.1C54.6599 221.1 45.2599 235.32 70.0599 247.34C92.0599 258 111.9 259.34 136.4 259C137.56 262.28 138.4 264.74 138.58 265C115.1 269.32 68.1999 263 45.8799 245.1V245.1ZM132.68 326.8C133.86 257.62 129.72 268.18 139.12 266.56C142.86 276.9 144.7 281.8 146 285.3C133.08 320.28 133.52 318.54 134.8 319.3C136.62 320.5 136.2 318.82 132.68 326.8ZM157.44 315.4C154.934 318.692 152.264 321.856 149.44 324.88C144.792 323.002 140.292 320.776 135.98 318.22C135.8 318.1 144.54 292.08 146.38 286.22C156.32 313 157.66 315.12 157.44 315.4ZM182.28 327.6C181.28 327.9 170.52 330.48 166.5 331.14C116.7 228.52 162.04 265.84 101.56 256.02C87.5599 253.72 68.3799 247.86 57.4599 237.52C49.0599 229.52 50.6199 232.52 56.5799 215.32C59.7799 215.96 103.62 227.9 174.34 227.9C184.56 254.12 183.74 319 182.28 327.6V327.6ZM184.28 282.64C183.3 267.94 182.42 245.7 175.9 227.88C198.8 228 196.08 227.08 197.02 228.26C209.2 243.52 195.34 267 184.3 282.64H184.28ZM201.38 235.3C198.56 225.68 193.7 228 202.66 227.52C202.436 230.141 202.015 232.742 201.4 235.3H201.38ZM217.16 229.94C212.16 226.32 214.82 227 216.96 226.88C217.12 230.08 217.4 230.1 217.18 229.94H217.16ZM251.88 335.94C247.74 335.94 248.54 336.9 248.44 334.56C248.3 331.66 225.7 339.22 218.44 339.22C219.12 333.22 230.44 327.86 235.96 325.44C235.96 325.44 237.22 325.44 241.48 325.9C255.28 327.36 251.9 321.24 251.9 335.94H251.88ZM235.88 310.84C245.28 311.64 252.26 311.26 252.24 311.46C251.9 313.96 252.24 324.36 251.84 324.44C246.688 325.415 241.394 325.368 236.26 324.3C235.96 310.1 236.12 311.68 235.88 310.84V310.84ZM26.2599 202.4C23.0599 200.4 20.4399 198.62 21.9599 188.6C48.3999 211 203.96 232.06 344.9 192.82C360.9 188.36 363.26 180.16 363.24 180.82C362.72 199.04 357.4 201.84 341.36 206.14C207.64 241.92 58.1599 223.24 26.2599 202.4V202.4ZM259.68 336.16C259.16 332.82 259 315.32 258.96 311.4C263.16 311.28 261.9 314.76 264.12 286.2C264.26 286.32 266.12 252.88 267.34 243.8C267.5 242.54 268.02 242.24 267.98 243.8C267.98 244.8 267.98 246.12 267.88 247.8C266.22 294.26 263.88 285.8 268.48 289.8C265 338.64 266.6 338.8 259.68 336.16V336.16ZM274.56 246.86C274.08 246.86 274.9 247.48 268.28 241.44C272.58 240.86 310.28 240.64 329.42 225.74C331.04 230.28 330.66 229.22 333.56 237.2C316.5 244.38 292.54 247.7 274.56 246.86ZM338.42 334.46C338.12 334.1 327.6 258.64 325.64 241.46C336.32 238.06 332.8 235.14 338.32 250.26C343.54 330.38 347 338.76 338.42 334.46V334.46ZM375.36 344.62C374.86 343.74 328.32 220.62 325.16 211.22C329.16 210.26 334.26 208.98 337.3 208.18C348.46 254.18 376.08 326.72 378.6 343.5C379.22 347.58 376.84 347.36 375.36 344.62Z" fill="black"/>
</svg>
