<svg width="306" height="20" viewBox="0 0 306 20" fill="none" xmlns="http://www.w3.org/2000/svg">
<g clip-path="url(#clip0_875_19567)">
<path d="M9.52447 1.46353C9.67415 1.00287 10.3259 1.00287 10.4755 1.46353L12.1329 6.56434C12.1998 6.77035 12.3918 6.90983 12.6084 6.90983H17.9717C18.4561 6.90983 18.6575 7.52964 18.2656 7.81434L13.9266 10.9668C13.7514 11.0941 13.678 11.3198 13.745 11.5258L15.4023 16.6266C15.552 17.0873 15.0248 17.4704 14.6329 17.1857L10.2939 14.0332C10.1186 13.9059 9.88135 13.9059 9.70611 14.0332L5.3671 17.1857C4.97524 17.4704 4.448 17.0873 4.59768 16.6266L6.25503 11.5258C6.32197 11.3198 6.24864 11.0941 6.07339 10.9668L1.73438 7.81434C1.34253 7.52964 1.54392 6.90983 2.02828 6.90983H7.39159C7.6082 6.90983 7.80018 6.77035 7.86712 6.56434L9.52447 1.46353Z" fill="#FFBC39"/>
<path d="M31.5245 1.46353C31.6741 1.00287 32.3259 1.00287 32.4755 1.46353L34.1329 6.56434C34.1998 6.77035 34.3918 6.90983 34.6084 6.90983H39.9717C40.4561 6.90983 40.6575 7.52964 40.2656 7.81434L35.9266 10.9668C35.7514 11.0941 35.678 11.3198 35.745 11.5258L37.4023 16.6266C37.552 17.0873 37.0248 17.4704 36.6329 17.1857L32.2939 14.0332C32.1186 13.9059 31.8814 13.9059 31.7061 14.0332L27.3671 17.1857C26.9752 17.4704 26.448 17.0873 26.5977 16.6266L28.255 11.5258C28.322 11.3198 28.2486 11.0941 28.0734 10.9668L23.7344 7.81434C23.3425 7.52964 23.5439 6.90983 24.0283 6.90983H29.3916C29.6082 6.90983 29.8002 6.77035 29.8671 6.56434L31.5245 1.46353Z" fill="#FFBC39"/>
<path d="M51.5245 1.46353C51.6741 1.00287 52.3259 1.00287 52.4755 1.46353L54.1329 6.56434C54.1998 6.77035 54.3918 6.90983 54.6084 6.90983H59.9717C60.4561 6.90983 60.6575 7.52964 60.2656 7.81434L55.9266 10.9668C55.7514 11.0941 55.678 11.3198 55.745 11.5258L57.4023 16.6266C57.552 17.0873 57.0248 17.4704 56.6329 17.1857L52.2939 14.0332C52.1186 13.9059 51.8814 13.9059 51.7061 14.0332L47.3671 17.1857C46.9752 17.4704 46.448 17.0873 46.5977 16.6266L48.255 11.5258C48.322 11.3198 48.2486 11.0941 48.0734 10.9668L43.7344 7.81434C43.3425 7.52964 43.5439 6.90983 44.0283 6.90983H49.3916C49.6082 6.90983 49.8002 6.77035 49.8671 6.56434L51.5245 1.46353Z" fill="#FFBC39"/>
<path d="M71.5245 1.46353C71.6741 1.00287 72.3259 1.00287 72.4755 1.46353L74.1329 6.56434C74.1998 6.77035 74.3918 6.90983 74.6084 6.90983H79.9717C80.4561 6.90983 80.6575 7.52964 80.2656 7.81434L75.9266 10.9668C75.7514 11.0941 75.678 11.3198 75.745 11.5258L77.4023 16.6266C77.552 17.0873 77.0248 17.4704 76.6329 17.1857L72.2939 14.0332C72.1186 13.9059 71.8814 13.9059 71.7061 14.0332L67.3671 17.1857C66.9752 17.4704 66.448 17.0873 66.5977 16.6266L68.255 11.5258C68.322 11.3198 68.2486 11.0941 68.0734 10.9668L63.7344 7.81434C63.3425 7.52964 63.5439 6.90983 64.0283 6.90983H69.3916C69.6082 6.90983 69.8002 6.77035 69.8671 6.56434L71.5245 1.46353Z" fill="#FFBC39"/>
<path d="M91.5245 1.46353C91.6741 1.00287 92.3259 1.00287 92.4755 1.46353L94.1329 6.56434C94.1998 6.77035 94.3918 6.90983 94.6084 6.90983H99.9717C100.456 6.90983 100.657 7.52964 100.266 7.81434L95.9266 10.9668C95.7514 11.0941 95.678 11.3198 95.745 11.5258L97.4023 16.6266C97.552 17.0873 97.0248 17.4704 96.6329 17.1857L92.2939 14.0332C92.1186 13.9059 91.8814 13.9059 91.7061 14.0332L87.3671 17.1857C86.9752 17.4704 86.448 17.0873 86.5977 16.6266L88.255 11.5258C88.322 11.3198 88.2486 11.0941 88.0734 10.9668L83.7344 7.81434C83.3425 7.52964 83.5439 6.90983 84.0283 6.90983H89.3916C89.6082 6.90983 89.8002 6.77035 89.8671 6.56434L91.5245 1.46353Z" fill="#FFBC39"/>
<path d="M111.524 1.46353C111.674 1.00287 112.326 1.00287 112.476 1.46353L114.133 6.56434C114.2 6.77035 114.392 6.90983 114.608 6.90983H119.972C120.456 6.90983 120.657 7.52964 120.266 7.81434L115.927 10.9668C115.751 11.0941 115.678 11.3198 115.745 11.5258L117.402 16.6266C117.552 17.0873 117.025 17.4704 116.633 17.1857L112.294 14.0332C112.119 13.9059 111.881 13.9059 111.706 14.0332L107.367 17.1857C106.975 17.4704 106.448 17.0873 106.598 16.6266L108.255 11.5258C108.322 11.3198 108.249 11.0941 108.073 10.9668L103.734 7.81434C103.343 7.52964 103.544 6.90983 104.028 6.90983H109.392C109.608 6.90983 109.8 6.77035 109.867 6.56434L111.524 1.46353Z" fill="#FFBC39"/>
<path d="M133.524 1.46353C133.674 1.00287 134.326 1.00287 134.476 1.46353L136.133 6.56434C136.2 6.77035 136.392 6.90983 136.608 6.90983H141.972C142.456 6.90983 142.657 7.52964 142.266 7.81434L137.927 10.9668C137.751 11.0941 137.678 11.3198 137.745 11.5258L139.402 16.6266C139.552 17.0873 139.025 17.4704 138.633 17.1857L134.294 14.0332C134.119 13.9059 133.881 13.9059 133.706 14.0332L129.367 17.1857C128.975 17.4704 128.448 17.0873 128.598 16.6266L130.255 11.5258C130.322 11.3198 130.249 11.0941 130.073 10.9668L125.734 7.81434C125.343 7.52964 125.544 6.90983 126.028 6.90983H131.392C131.608 6.90983 131.8 6.77035 131.867 6.56434L133.524 1.46353Z" fill="#FFBC39"/>
<path d="M153.524 1.46353C153.674 1.00287 154.326 1.00287 154.476 1.46353L156.133 6.56434C156.2 6.77035 156.392 6.90983 156.608 6.90983H161.972C162.456 6.90983 162.657 7.52964 162.266 7.81434L157.927 10.9668C157.751 11.0941 157.678 11.3198 157.745 11.5258L159.402 16.6266C159.552 17.0873 159.025 17.4704 158.633 17.1857L154.294 14.0332C154.119 13.9059 153.881 13.9059 153.706 14.0332L149.367 17.1857C148.975 17.4704 148.448 17.0873 148.598 16.6266L150.255 11.5258C150.322 11.3198 150.249 11.0941 150.073 10.9668L145.734 7.81434C145.343 7.52964 145.544 6.90983 146.028 6.90983H151.392C151.608 6.90983 151.8 6.77035 151.867 6.56434L153.524 1.46353Z" fill="#FFBC39"/>
<path d="M173.524 1.46353C173.674 1.00287 174.326 1.00287 174.476 1.46353L176.133 6.56434C176.2 6.77035 176.392 6.90983 176.608 6.90983H181.972C182.456 6.90983 182.657 7.52964 182.266 7.81434L177.927 10.9668C177.751 11.0941 177.678 11.3198 177.745 11.5258L179.402 16.6266C179.552 17.0873 179.025 17.4704 178.633 17.1857L174.294 14.0332C174.119 13.9059 173.881 13.9059 173.706 14.0332L169.367 17.1857C168.975 17.4704 168.448 17.0873 168.598 16.6266L170.255 11.5258C170.322 11.3198 170.249 11.0941 170.073 10.9668L165.734 7.81434C165.343 7.52964 165.544 6.90983 166.028 6.90983H171.392C171.608 6.90983 171.8 6.77035 171.867 6.56434L173.524 1.46353Z" fill="#FFBC39"/>
<path d="M194 1.52286L195.765 6.59945C195.902 6.99452 196.271 7.2624 196.689 7.27092L202.062 7.38042L197.779 10.6274C197.446 10.8801 197.305 11.3135 197.426 11.7139L198.983 16.8582L194.571 13.7883C194.228 13.5494 193.772 13.5494 193.429 13.7883L189.017 16.8582L190.574 11.7139C190.695 11.3135 190.554 10.8801 190.221 10.6274L185.938 7.38042L191.311 7.27092C191.729 7.2624 192.098 6.99453 192.235 6.59945L194 1.52286Z" stroke="#FFBC39"/>
<path d="M213.524 1.46353C213.674 1.00287 214.326 1.00287 214.476 1.46353L216.133 6.56434C216.2 6.77035 216.392 6.90983 216.608 6.90983H221.972C222.456 6.90983 222.657 7.52964 222.266 7.81434L217.927 10.9668C217.751 11.0941 217.678 11.3198 217.745 11.5258L219.402 16.6266C219.552 17.0873 219.025 17.4704 218.633 17.1857L214.294 14.0332C214.119 13.9059 213.881 13.9059 213.706 14.0332L209.367 17.1857C208.975 17.4704 208.448 17.0873 208.598 16.6266L210.255 11.5258C210.322 11.3198 210.249 11.0941 210.073 10.9668L205.734 7.81434C205.343 7.52964 205.544 6.90983 206.028 6.90983H211.392C211.608 6.90983 211.8 6.77035 211.867 6.56434L213.524 1.46353Z" fill="#FFBC39"/>
<path d="M235.524 1.46353C235.674 1.00287 236.326 1.00287 236.476 1.46353L238.133 6.56434C238.2 6.77035 238.392 6.90983 238.608 6.90983H243.972C244.456 6.90983 244.657 7.52964 244.266 7.81434L239.927 10.9668C239.751 11.0941 239.678 11.3198 239.745 11.5258L241.402 16.6266C241.552 17.0873 241.025 17.4704 240.633 17.1857L236.294 14.0332C236.119 13.9059 235.881 13.9059 235.706 14.0332L231.367 17.1857C230.975 17.4704 230.448 17.0873 230.598 16.6266L232.255 11.5258C232.322 11.3198 232.249 11.0941 232.073 10.9668L227.734 7.81434C227.343 7.52964 227.544 6.90983 228.028 6.90983H233.392C233.608 6.90983 233.8 6.77035 233.867 6.56434L235.524 1.46353Z" fill="#FFBC39"/>
<path d="M255.524 1.46353C255.674 1.00287 256.326 1.00287 256.476 1.46353L258.133 6.56434C258.2 6.77035 258.392 6.90983 258.608 6.90983H263.972C264.456 6.90983 264.657 7.52964 264.266 7.81434L259.927 10.9668C259.751 11.0941 259.678 11.3198 259.745 11.5258L261.402 16.6266C261.552 17.0873 261.025 17.4704 260.633 17.1857L256.294 14.0332C256.119 13.9059 255.881 13.9059 255.706 14.0332L251.367 17.1857C250.975 17.4704 250.448 17.0873 250.598 16.6266L252.255 11.5258C252.322 11.3198 252.249 11.0941 252.073 10.9668L247.734 7.81434C247.343 7.52964 247.544 6.90983 248.028 6.90983H253.392C253.608 6.90983 253.8 6.77035 253.867 6.56434L255.524 1.46353Z" fill="#FFBC39"/>
<path d="M275.524 1.46353C275.674 1.00287 276.326 1.00287 276.476 1.46353L278.133 6.56434C278.2 6.77035 278.392 6.90983 278.608 6.90983H283.972C284.456 6.90983 284.657 7.52964 284.266 7.81434L279.927 10.9668C279.751 11.0941 279.678 11.3198 279.745 11.5258L281.402 16.6266C281.552 17.0873 281.025 17.4704 280.633 17.1857L276.294 14.0332C276.119 13.9059 275.881 13.9059 275.706 14.0332L271.367 17.1857C270.975 17.4704 270.448 17.0873 270.598 16.6266L272.255 11.5258C272.322 11.3198 272.249 11.0941 272.073 10.9668L267.734 7.81434C267.343 7.52964 267.544 6.90983 268.028 6.90983H273.392C273.608 6.90983 273.8 6.77035 273.867 6.56434L275.524 1.46353Z" fill="#FFBC39"/>
<path d="M295.524 1.46353C295.674 1.00287 296.326 1.00287 296.476 1.46353L298.133 6.56434C298.2 6.77035 298.392 6.90983 298.608 6.90983H303.972C304.456 6.90983 304.657 7.52964 304.266 7.81434L299.927 10.9668C299.751 11.0941 299.678 11.3198 299.745 11.5258L301.402 16.6266C301.552 17.0873 301.025 17.4704 300.633 17.1857L296.294 14.0332C296.119 13.9059 295.881 13.9059 295.706 14.0332L291.367 17.1857C290.975 17.4704 290.448 17.0873 290.598 16.6266L292.255 11.5258C292.322 11.3198 292.249 11.0941 292.073 10.9668L287.734 7.81434C287.343 7.52964 287.544 6.90983 288.028 6.90983H293.392C293.608 6.90983 293.8 6.77035 293.867 6.56434L295.524 1.46353Z" fill="#FFBC39"/>
</g>
<defs>
<clipPath id="clip0_875_19567">
<rect width="306" height="20" fill="white"/>
</clipPath>
</defs>
</svg>
